<?xml version="1.0" encoding="UTF-8" standalone="no"?>
<!-- Created with Inkscape (http://www.inkscape.org/) -->

<svg
   width="123.693mm"
   height="149.664mm"
   viewBox="0 0 123.693 149.664"
   version="1.1"
   id="svg5"
   xml:space="preserve"
   inkscape:version="1.2.1 (9c6d41e, 2022-07-14)"
   sodipodi:docname="ks3ckc_art.svg"
   inkscape:export-filename="ks3ckc_art.png"
   inkscape:export-xdpi="96"
   inkscape:export-ydpi="96"
   xmlns:inkscape="http://www.inkscape.org/namespaces/inkscape"
   xmlns:sodipodi="http://sodipodi.sourceforge.net/DTD/sodipodi-0.dtd"
   xmlns="http://www.w3.org/2000/svg"
   xmlns:svg="http://www.w3.org/2000/svg"><sodipodi:namedview
     id="namedview7"
     pagecolor="#ffffff"
     bordercolor="#000000"
     borderopacity="0.25"
     inkscape:showpageshadow="2"
     inkscape:pageopacity="0.0"
     inkscape:pagecheckerboard="0"
     inkscape:deskcolor="#d1d1d1"
     inkscape:document-units="mm"
     showgrid="false"
     inkscape:zoom="0.93806818"
     inkscape:cx="80.484555"
     inkscape:cy="404.55482"
     inkscape:window-width="1728"
     inkscape:window-height="1051"
     inkscape:window-x="0"
     inkscape:window-y="127"
     inkscape:window-maximized="1"
     inkscape:current-layer="layer1"
     showguides="true" /><defs
     id="defs2" /><g
     inkscape:label="Layer 1"
     inkscape:groupmode="layer"
     id="layer1"
     transform="translate(-5.8410316,-41.943596)"><path
       style="fill:#ffffff;fill-opacity:1;stroke-width:0.196274"
       d="m 65.030245,192.18949 c -3.07581,-0.37811 -6.617658,-1.43958 -9.750208,-2.92208 -5.33548,-2.52507 -21.9927,-11.73364 -27.40463,-15.15004 l -0.79904,-0.50442 1.36135,-0.34988 c 0.74874,-0.19244 1.49475,-0.4031 1.65779,-0.46813 0.16814,-0.0671 0.75994,0.18036 1.3673,0.57166 0.67497,0.43486 1.31134,0.68991 1.72137,0.68991 0.46645,0 1.7456,0.61981 4.52092,2.19061 11.24406,6.364 19.50103,10.63634 22.26936,11.52265 5.156188,1.65081 9.844898,1.58997 14.768598,-0.19163 3.41905,-1.23716 13.27126,-6.61438 23.65378,-12.90995 l 3.434785,-2.08274 3.18946,-0.19677 c 1.7542,-0.10823 3.18692,-0.15261 3.18382,-0.0986 -0.0172,0.29878 -13.535135,8.43328 -20.257505,12.19006 -8.62995,4.82282 -12.29048,6.47436 -16.05606,7.24409 -1.98098,0.40493 -5.4425,0.63968 -6.86109,0.4653 z M 33.168207,170.86706 c -0.14903,-0.24289 -0.87602,-2.20809 -1.61553,-4.3671 -1.54697,-4.51643 -1.40026,-4.54911 -2.04896,0.45638 -0.2284,1.76232 -0.46385,3.33082 -0.52323,3.48556 -0.16201,0.4222 -0.94437,0.57084 -3.00877,0.57164 l -1.8646,7.9e-4 -0.0606,-0.6256 c -0.0589,-0.60771 3.19909,-24.69542 3.41692,-25.26307 0.15748,-0.41038 0.43491,-0.47693 2.57198,-0.61698 1.50934,-0.0989 2.00186,-0.066 2.29114,0.15326 0.41521,0.31466 0.38591,0.65554 -0.58488,6.80341 -0.26251,1.66239 -0.44491,3.0549 -0.40535,3.09447 0.093,0.093 3.42247,-6.04816 4.35389,-8.03068 l 0.71465,-1.52112 h 1.94742 1.94742 v 0.52655 c 0,0.57609 -1.56055,3.50194 -5.13793,9.63304 -1.27626,2.18727 -2.32048,4.02441 -2.32048,4.08247 0,0.0581 0.87275,2.02218 1.93943,4.36469 2.42901,5.33423 3.16369,7.02115 3.16369,7.26418 0,0.33428 -0.56928,0.42972 -2.56308,0.42972 -1.80296,0 -1.96159,-0.0316 -2.21314,-0.44161 z m 53.027278,-0.49219 c -0.17972,-0.0385 -0.36856,-0.17882 -0.41964,-0.31193 -0.0511,-0.13311 0.12289,-1.6075 0.38659,-3.27642 0.2637,-1.66892 1.08668,-7.15772 1.82883,-12.19734 0.74216,-5.03962 1.44077,-9.33371 1.55247,-9.54243 0.25198,-0.47084 1.0003,-0.62762 2.99557,-0.62762 1.20276,0 1.57739,0.0666 1.66552,0.29631 0.0625,0.16298 -0.1173,1.90737 -0.39965,3.87642 -0.28234,1.96905 -0.51189,3.66842 -0.5101,3.77638 0.004,0.24819 2.03507,-2.89896 3.58105,-5.54918 0.6483,-1.11134 1.33818,-2.10597 1.53308,-2.21028 0.43742,-0.2341 3.323845,-0.2461 3.688025,-0.0153 0.34517,0.21873 0.45463,0.0257 -3.391035,5.97921 -1.75361,2.71478 -3.55545,5.55789 -4.00409,6.31803 l -0.81571,1.38208 1.39108,3.03409 c 2.154,4.69811 3.7507,8.62653 3.63198,8.93591 -0.0839,0.2186 -0.55905,0.28081 -2.14498,0.28081 h -2.03723 l -0.32122,-0.73603 c -0.17666,-0.40482 -0.85756,-2.1469 -1.51309,-3.87129 -0.65554,-1.72439 -1.21543,-3.1588 -1.24422,-3.18759 -0.0288,-0.0288 -0.25167,1.33793 -0.49531,3.03713 -0.54138,3.77563 -0.70059,4.33796 -1.26068,4.45291 -0.60975,0.12515 -3.30929,0.23917 -3.69724,0.15616 z m -13.2318,-0.25996 c -0.64935,-0.33458 -1.06385,-1.22934 -1.06385,-2.29651 0,-0.78776 1.10496,-9.25728 2.75826,-21.14212 0.24454,-1.75789 0.77641,-2.8906 1.5154,-3.2273 0.50093,-0.22824 7.29936,-0.78458 9.68045,-0.79218 1.32504,-0.004 1.71049,0.19001 1.99897,1.00737 0.063,0.1785 -0.0476,1.45919 -0.24573,2.84597 -0.19816,1.38679 -0.41932,3.0296 -0.49148,3.65071 -0.0941,0.81025 -0.23442,1.18452 -0.49662,1.32484 -0.20099,0.10757 -1.39237,0.19558 -2.64752,0.19558 h -2.28208 l 0.13245,-0.88323 0.13245,-0.88324 h -1.69062 c -0.92984,0 -1.69158,0.0662 -1.69276,0.14721 -0.001,0.081 -0.39863,3.01215 -0.88323,6.51374 -0.4846,3.5016 -0.88109,6.48595 -0.88109,6.63189 0,0.20701 0.37636,0.25288 1.71157,0.20864 l 1.71158,-0.0567 0.20749,-1.37391 c 0.11412,-0.75566 0.28423,-1.49681 0.37804,-1.64702 0.13641,-0.21843 0.62144,-0.25088 2.42328,-0.16214 1.239,0.061 2.32495,0.18391 2.41323,0.27309 0.22629,0.2286 -0.96111,8.51124 -1.29382,9.02501 -0.36337,0.56111 -0.87878,0.62144 -6.37372,0.74605 -3.09517,0.0702 -4.74673,0.0354 -5.02065,-0.10574 z m 27.864605,-0.16292 c -0.82162,-0.35838 -1.253835,-1.16867 -1.253485,-2.34993 5.9e-4,-1.8973 2.829335,-22.59171 3.181565,-23.27534 0.32352,-0.62792 0.80431,-1.11598 1.27773,-1.29704 0.8105,-0.30999 9.98973,-0.9846 10.5417,-0.77475 0.92247,0.35073 0.95788,0.76488 0.41151,4.8139 -0.38351,2.8421 -0.58131,3.78757 -0.83154,3.97455 -0.21785,0.16279 -1.08267,0.24534 -2.57025,0.24534 h -2.24192 l 0.13245,-0.88323 0.13245,-0.88323 h -1.67662 c -1.57825,0 -1.68248,0.0259 -1.77656,0.44161 -0.055,0.24289 -0.45364,3.04716 -0.88594,6.2317 -0.43229,3.18455 -0.82909,6.03639 -0.88177,6.33743 l -0.0958,0.54735 1.71401,-0.0567 1.71401,-0.0567 0.21222,-1.29326 c 0.33837,-2.06199 0.19569,-1.94564 2.38225,-1.94259 2.52856,0.004 2.80307,0.0848 2.80307,0.8299 0,0.32479 -0.22776,2.32384 -0.50613,4.44234 -0.44835,3.41214 -0.5575,3.8987 -0.95625,4.26242 -0.40642,0.37073 -0.78127,0.42372 -3.86097,0.54573 -1.87597,0.0743 -4.11743,0.177 -4.98104,0.22817 -0.8636,0.0512 -1.75672,0.0117 -1.9847,-0.0877 z m -81.439163,-1.22718 c -3.10153,-2.13335 -4.60634,-3.3309 -6.19399,-4.92926 -1.67135,-1.68261 -1.96855,-2.17927 -0.84973,-1.42002 0.72374,0.49115 2.64096,1.27846 3.11322,1.27846 0.147,0 0.8636,0.54042 1.59246,1.20094 1.26166,1.14337 4.06766,3.11708 4.43151,3.11708 0.19573,0 0.22274,0.86681 0.0474,1.52113 -0.0651,0.24289 -0.17762,0.44161 -0.25008,0.44161 -0.0725,0 -0.9233,-0.54447 -1.89077,-1.20994 z m 45.150438,1.00068 c -1.29541,-0.0715 -3.437248,-0.14203 -4.759648,-0.15667 -2.14763,-0.0238 -2.44763,-0.0699 -2.80969,-0.43195 -0.2863,-0.2863 -0.37398,-0.56009 -0.29858,-0.9323 0.0587,-0.28983 0.243,-1.63101 0.4095,-2.98039 0.16651,-1.34939 0.35496,-2.70957 0.41878,-3.02264 l 0.11604,-0.5692 3.57363,0.13306 c 4.169488,0.15524 4.104008,0.18178 4.453978,-1.80499 0.18382,-1.04357 0.16416,-1.2947 -0.15204,-1.94184 -0.41647,-0.85239 -0.92105,-1.00718 -3.34658,-1.02659 -1.075508,-0.009 -1.454698,-0.0854 -1.586768,-0.32141 -0.22331,-0.39903 0.25921,-3.95608 0.59086,-4.35569 0.20297,-0.24457 0.611538,-0.27474 2.363198,-0.17452 l 2.1178,0.12117 0.38633,-0.63361 c 0.40992,-0.67232 0.49439,-1.43714 0.20857,-1.88852 -0.13166,-0.20792 -1.05518,-0.31206 -3.84957,-0.43413 -2.021988,-0.0883 -3.720158,-0.2044 -3.773698,-0.25794 -0.0535,-0.0536 0.0984,-1.62465 0.33767,-3.49135 0.41179,-3.21268 0.68467,-4.17459 1.24456,-4.38712 0.12865,-0.0488 2.476738,0.0724 5.217978,0.26939 l 4.98408,0.35818 0.57625,0.64494 c 0.65437,0.73236 0.66865,0.15474 -0.14731,5.95888 -0.53304,3.79171 -0.86685,4.60967 -2.26312,5.54554 l -0.88948,0.59619 0.85361,0.53145 c 0.60512,0.37674 0.97177,0.79857 1.25953,1.44911 0.47215,1.06736 0.47904,0.95163 -0.45899,7.70216 -0.835,6.00906 -0.59418,5.73175 -4.77689,5.50079 z m -24.485048,-0.50904 c -0.5627,-0.15655 -0.6173,-0.9691 -0.25356,-3.77344 0.51244,-3.95072 0.0415,-3.56509 4.17853,-3.42166 l 3.49797,0.12128 0.51856,-0.61628 c 0.61863,-0.73519 1.04119,-2.48688 0.77122,-3.19696 -0.35032,-0.92142 -0.68803,-1.02899 -3.62889,-1.15596 -3.2191,-0.13897 -3.90308,-0.37749 -4.38929,-1.53065 -0.35006,-0.83024 -0.23732,-2.183 0.72857,-8.74177 0.80764,-5.48425 0.53465,-5.27994 7.64287,-5.71993 l 4.99343,-0.30908 0.48178,0.48178 0.48177,0.48178 -0.44795,3.49987 c -0.24638,1.92492 -0.5349,3.61012 -0.64117,3.74487 -0.1476,0.18715 -0.92145,0.21497 -3.27765,0.11784 -1.69644,-0.0699 -3.32247,-0.0674 -3.61341,0.006 -1.07711,0.27034 -1.6347,2.04974 -1.01675,3.24472 0.38534,0.74517 1.01845,0.94638 3.44364,1.09443 3.09645,0.18903 4.28556,0.85663 4.44848,2.49751 0.11423,1.15043 -1.37753,11.11781 -1.7806,11.89725 -0.65933,1.27501 -0.81477,1.3067 -6.58375,1.34223 -2.86575,0.0176 -5.36496,-0.0109 -5.5538,-0.0634 z m 74.309293,-1.27525 c 0.0654,-0.46883 0.1767,-1.3382 0.24742,-1.93193 0.0707,-0.59373 0.21242,-1.18564 0.31489,-1.31537 0.10248,-0.12972 1.0402,-0.80696 2.08383,-1.50497 1.04363,-0.69802 2.38329,-1.70115 2.97702,-2.22919 0.59373,-0.52804 1.69777,-1.29977 2.45342,-1.71497 1.52136,-0.83591 2.5668,-1.58422 3.69025,-2.64145 l 0.74614,-0.70216 -0.32708,0.7851 c -1.15742,2.77817 -3.11181,5.56117 -5.03227,7.16588 -1.0569,0.88311 -3.69495,2.69372 -6.41327,4.40165 l -0.85919,0.53984 z m -95.800403,-5.56565 c -1.01913,-0.87234 -1.99014,-2.1939 -3.21051,-4.36956 -1.06287,-1.89488 -1.12311,-1.89919 -0.60612,-0.0433 0.44487,1.597 0.37889,1.96212 -0.35456,1.96212 -0.81343,0 -1.62805,-0.79181 -2.26324,-2.19988 -0.47497,-1.0529 -0.56964,-1.55369 -0.64227,-3.39766 -0.099,-2.51204 0.18078,-3.90373 1.2321,-6.12983 0.36961,-0.78265 0.59245,-1.42299 0.49519,-1.42299 -0.0973,0 -0.80807,0.75576 -1.57959,1.67948 -1.544219,1.84883 -1.8936695,1.98273 -2.6206995,1.00419 -0.37457,-0.50415 -0.41137,-0.80906 -0.40271,-3.33666 0.009,-2.51102 0.0619,-2.93255 0.5476,-4.33044 0.69694,-2.00587 1.3392595,-3.08193 2.3936995,-4.01008 1.02403,-0.90139 2.17958,-1.28985 3.30088,-1.10963 1.06092,0.17051 3.10351,1.07607 3.01643,1.3373 -0.0373,0.11185 -0.72469,0.47386 -1.52758,0.80446 -2.65302,1.09244 -3.09337,1.5441 -0.96865,0.99353 2.68746,-0.69639 5.78654,-0.57465 7.83809,0.3079 1.25757,0.541 1.55157,0.99904 0.99712,1.55349 -0.37226,0.37227 -0.61869,0.39595 -3.78277,0.36357 -3.04164,-0.0311 -3.52377,0.0105 -4.75848,0.41112 -1.556,0.50483 -3.29753,1.49264 -4.02409,2.28251 -0.26962,0.2931 -0.40189,0.49426 -0.29394,0.44702 0.10795,-0.0472 0.72621,-0.33331 1.37392,-0.63569 2.61609,-1.22134 5.95561,-1.65292 7.36027,-0.95122 0.54364,0.27158 0.69981,0.47651 0.74855,0.98224 0.0501,0.51957 -0.15669,0.94161 -1.10587,2.25715 -1.25191,1.73512 -2.58679,4.03772 -2.58679,4.46207 0,0.14291 0.43384,-0.35793 0.96408,-1.11297 1.11246,-1.58408 2.30396,-2.69341 3.72176,-3.46507 l 0.99753,-0.54293 -0.78062,1.62918 c -1.64673,3.43675 -2.28854,7.75589 -1.65662,11.14847 0.49963,2.68236 0.55987,3.49832 0.28291,3.83204 -0.41159,0.49593 -1.24297,0.33799 -2.10502,-0.3999 z m 102.208653,-6.31922 c -0.47001,-0.17282 -1.01271,-0.70816 -1.19134,-1.17518 -0.0907,-0.23716 -0.21614,-1.60617 -0.27873,-3.04225 -0.16486,-3.78253 -0.55726,-5.07089 -2.48239,-8.1504 -0.50156,-0.80233 -0.32653,-1.10902 0.54015,-0.94643 0.36546,0.0686 0.66448,0.0872 0.66448,0.0415 0,-0.0457 -0.4637,-0.44016 -1.03044,-0.8765 -0.77008,-0.59289 -1.44073,-0.89783 -2.65423,-1.20685 -1.89187,-0.48177 -2.98865,-0.96282 -2.98865,-1.31084 0,-0.42858 0.3156,-0.46761 1.33449,-0.16503 1.98264,0.58879 2.84399,0.6563 5.72443,0.44872 4.249,-0.3062 4.23368,-0.55667 -0.0307,-0.50212 -4.34553,0.0556 -4.42945,0.0235 -3.57025,-1.36625 1.08467,-1.75441 3.84706,-2.59796 8.58954,-2.62299 2.63158,-0.0139 2.62576,0.0699 0.0724,-1.04371 -0.62071,-0.27072 -1.12857,-0.59222 -1.12857,-0.71444 0,-0.12223 0.25817,-0.48041 0.57372,-0.79596 0.31555,-0.31555 0.49323,-0.57372 0.39485,-0.57372 -0.0984,0 -0.90858,0.30175 -1.80044,0.67056 -2.04022,0.8437 -5.84074,2.07727 -6.39986,2.07727 -0.23263,0 -0.42296,-0.10355 -0.42296,-0.23011 0,-0.24555 2.26952,-2.55042 3.21942,-3.26955 0.95491,-0.72293 0.46228,-0.65638 -0.87607,0.11835 -1.70936,0.9895 -4.06199,3.35301 -4.97756,5.00057 -0.52957,0.95296 -0.84713,1.32485 -1.1313,1.32485 -0.80439,0 -1.67419,0.59691 -2.03467,1.3963 -0.40964,0.90844 -0.77701,1.15527 -1.71943,1.15527 -1.0468,0 -1.18676,-0.32262 -0.82209,-1.89508 0.99523,-4.29152 2.33737,-7.91457 4.62548,-12.48624 0.74851,-1.49554 1.35897,-2.77987 1.35657,-2.85405 -0.005,-0.15778 -0.25188,0.13715 -1.92677,2.30275 -1.06938,1.38268 -1.31756,1.6002 -1.76647,1.54827 -0.49168,-0.0569 -0.52086,-0.11795 -0.49795,-1.04179 0.0547,-2.20798 4.12297,-16.69923 5.69599,-20.28943 0.60406,-1.37869 0.7162,-1.27892 2.40922,2.14347 1.43633,2.90349 3.19228,7.87459 3.57839,10.13042 l 0.24058,1.40561 -1.45097,1.93105 c -0.79803,1.06207 -2.75379,3.54967 -4.34614,5.528 -2.3945,2.97491 -4.96323,6.48917 -5.76356,7.88507 -0.15004,0.2617 -0.12644,0.2617 0.21236,0 1.4221,-1.09845 8.65293,-7.83783 10.34432,-9.64125 1.5274,-1.62856 2.14464,-2.16301 2.38957,-2.06902 0.42133,0.16168 2.0221,3.54087 2.10715,4.44813 l 0.0644,0.68696 -1.07951,0.0981 -1.07951,0.0981 0.88324,0.56173 c 3.15304,2.00531 4.91292,3.686 6.28757,6.00465 1.66534,2.80895 2.20648,5.2632 1.77629,8.05604 -0.33046,2.14531 -1.55045,5.54525 -2.67132,7.44454 -1.27354,2.158 -3.73911,4.71752 -5.19892,5.39701 -1.11151,0.51738 -1.26507,0.54923 -1.76382,0.36584 z m -0.44161,-29.75515 c 0.75208,-0.79804 1.03044,-0.99367 1.03044,-0.72419 0,0.20307 0.0883,0.4238 0.19627,0.49052 0.29675,0.1834 0.24121,-1.53185 -0.0631,-1.94798 -0.23765,-0.325 -0.3154,-0.26653 -0.92902,0.69851 -0.36832,0.57926 -1.51022,1.93002 -2.53756,3.00169 l -1.86789,1.94851 1.5702,-1.18683 c 0.8636,-0.65275 2.03389,-1.67886 2.60063,-2.28023 z m -4.76553,26.87212 c -0.34549,-0.25263 -0.35665,-0.36573 -0.14039,-1.42299 0.12921,-0.6317 0.37849,-2.34091 0.55395,-3.79825 0.17547,-1.45733 0.35211,-2.68436 0.39255,-2.72673 0.18267,-0.19142 0.67041,0.47559 0.95193,1.3018 0.7682,2.25453 -0.0839,6.88502 -1.27303,6.9176 -0.0603,0.002 -0.27858,-0.12049 -0.48501,-0.27143 z m -13.72359,-11.64921 c 0.0887,-0.51277 0.17375,-1.83164 0.18909,-2.93083 0.0259,-1.85598 0.0758,-2.09397 0.69965,-3.33666 0.61061,-1.21636 0.72303,-1.33447 1.23533,-1.29791 0.74692,0.0533 1.30102,0.58216 1.30102,1.24179 0,0.49626 -1.35501,4.68228 -2.03888,6.29868 -0.26712,0.63138 -0.71759,0.94444 -1.37353,0.95455 -0.0992,0.002 -0.10468,-0.39754 -0.0127,-0.92962 z m -19.891415,-2.14337 c 0.0675,-1.5222 0.35219,-1.77051 0.93466,-0.81514 0.50099,0.82172 0.50256,1.23584 0.007,1.7318 -0.76369,0.76368 -1.00533,0.52836 -0.94127,-0.91666 z m -49.030628,0.27877 c 0.23568,-1.53409 1.63087,-3.03497 3.23559,-3.48072 0.45535,-0.12648 8.30059,-0.19763 21.87101,-0.19833 l 21.160958,-10e-4 -0.0615,0.63789 -0.0615,0.63789 -21.52289,0.0981 -21.5229,0.0981 -0.7542,0.60321 c -0.51235,0.40978 -0.84862,0.89724 -1.04862,1.5201 -0.26027,0.81057 -0.3599,0.917 -0.85925,0.91791 -0.55387,9.8e-4 -0.56235,-0.0152 -0.43669,-0.83313 z m 64.376268,-0.41056 c -1.07227,-0.92232 -0.38597,-2.68076 1.04627,-2.68076 1.63634,0 2.249315,2.11724 0.82606,2.85323 -0.77882,0.40275 -1.25455,0.35893 -1.87233,-0.17247 z m -75.249318,-1.63131 c -0.59373,-0.15883 -1.91858,-0.55862 -2.94411,-0.88841 -1.52232,-0.48955 -2.30596,-0.61776 -4.26896,-0.69844 -1.32239,-0.0543 -2.40436,-0.16456 -2.40436,-0.24492 0,-0.36685 0.89883,-1.22108 1.96862,-1.87095 1.14289,-0.69427 1.17177,-0.73285 1.17177,-1.56577 0,-1.56626 1.26631,-2.58634 3.51046,-2.82785 l 1.29825,-0.13972 -0.82876,-0.26349 c -1.71771,-0.54611 -1.93395,-1.18943 -1.16226,-3.4578 0.80512,-2.36665 1.89479,-4.27798 3.58491,-6.28808 0.74056,-0.88077 0.82991,-1.08802 0.73122,-1.69615 -0.14744,-0.90859 0.22807,-2.00478 0.85595,-2.49867 0.27663,-0.21759 0.57164,-0.39562 0.6556,-0.39562 0.084,0 0.39032,0.62199 0.68081,1.3822 0.29049,0.76021 1.08073,2.28379 1.7561,3.38573 0.67536,1.10194 1.76881,2.88101 2.42989,3.95348 1.3775,2.23474 2.38602,4.51787 2.38602,5.40155 0,0.47076 -0.1128,0.6502 -0.50171,0.79807 -0.61509,0.23385 -1.29983,-0.0831 -2.14798,-0.99426 -1.092,-1.17313 -3.33955,-2.84211 -4.96877,-3.68973 -2.00282,-1.04198 -2.72592,-1.02702 -1.14305,0.0237 2.5137,1.66852 5.0703,4.53352 6.38308,7.15305 0.55379,1.10502 0.61197,1.39475 0.61197,3.04764 0,2.08591 -0.26013,2.69897 -1.14524,2.69897 -0.53978,0 -0.73132,-0.11744 -2.99616,-1.83688 -1.46432,-1.11169 -3.36575,-2.10929 -4.87409,-2.55721 -1.28,-0.38012 -3.41969,-0.39869 -4.23301,-0.0367 -0.68275,0.30385 -0.63037,0.33483 1.37392,0.81276 0.75566,0.18019 2.00295,0.61537 2.77176,0.96708 1.37562,0.6293 3.66237,2.0677 3.90097,2.45376 0.17636,0.28536 -1.17201,0.21542 -2.45284,-0.12724 z m 0.38957,-12.188 c -0.006,-0.27317 -2.02731,-1.63504 -2.33838,-1.57513 -0.62205,0.1198 -0.27905,0.56165 0.8693,1.11982 1.27324,0.61888 1.47365,0.681 1.46908,0.45531 z m 59.277728,8.62247 c 0,-2.4306 -0.0249,-2.59404 -0.47476,-3.11585 l -0.47477,-0.5507 -5.14712,0.0675 c -4.93819,0.0648 -5.14118,0.0528 -5.00083,-0.29441 0.52773,-1.30563 0.53863,-1.46659 0.1974,-2.91559 -0.32784,-1.39212 -0.32787,-1.50398 -5.9e-4,-2.36096 0.47656,-1.24784 1.41395,-2.41484 2.61208,-3.25189 0.55851,-0.39019 2.54152,-1.30963 4.40669,-2.04319 1.86517,-0.73356 3.92116,-1.59722 4.56886,-1.91924 2.60089,-1.29308 4.90566,-3.19087 6.60369,-5.43758 0.28556,-0.37783 0.57912,-0.62892 0.65236,-0.55799 0.41877,0.40554 -1.96823,3.19661 -3.93268,4.59841 -1.21274,0.86539 -3.53143,2.0291 -7.22279,3.625 -2.47274,1.06904 -4.48388,2.38501 -5.67994,3.71659 -1.26468,1.40797 -1.62156,2.07862 -0.65444,1.2298 1.11798,-0.98122 1.909,-1.29826 5.7195,-2.29238 7.14738,-1.86468 10.75507,-3.96918 14.84398,-8.65904 0.98685,-1.13189 1.94287,-2.05294 2.13089,-2.05294 0.31766,0 0.32298,0.11264 0.0776,1.64504 -0.48808,3.04798 -2.47963,10.1413 -3.04412,10.84226 -0.0975,0.1211 -0.49291,0.27139 -0.87864,0.33398 -0.83104,0.13486 -1.25512,0.44458 -1.25512,0.91665 0,0.26365 -0.22744,0.3734 -0.98096,0.47336 -0.82751,0.10977 -1.11454,0.26954 -1.83495,1.02136 -0.67511,0.70454 -1.02911,0.91471 -1.68992,1.00334 l -0.83591,0.11212 0.61776,0.57735 c 0.69665,0.65108 0.71076,0.4941 -0.28746,3.19789 -0.35977,0.97446 -0.80328,2.36555 -0.98559,3.09132 -0.1885,0.75044 -0.43757,1.31959 -0.57748,1.31959 -0.13531,0 -0.52202,0.0552 -0.85937,0.12267 l -0.61336,0.12267 z m 6.62672,1.43752 c -0.70147,-0.39861 -1.13104,-1.25624 -1.13104,-2.2581 0,-1.5534 0.95974,-2.64137 2.5163,-2.85252 2.02077,-0.27411 2.05935,-0.49354 0.11686,-0.66476 l -1.2909,-0.11379 0.50651,-0.74474 c 0.6157,-0.90528 0.617,-0.92381 0.0649,-0.9227 -0.35445,7.9e-4 -0.60642,0.32034 -1.27654,1.61926 -1.36401,2.64395 -1.73189,2.86916 -0.74561,0.45645 0.48188,-1.17881 1.01547,-2.28285 1.18576,-2.45342 0.25283,-0.25325 0.92869,-0.32161 3.68439,-0.37268 4.7917,-0.0888 4.52561,-0.18436 5.53772,1.98872 0.81932,1.75915 1.8696,4.48763 1.8696,4.85698 0,0.10151 -0.6952,0.18457 -1.54489,0.18457 -1.22049,0 -2.01384,0.14652 -3.77827,0.69779 -2.65071,0.82817 -4.87895,1.0539 -5.71479,0.57894 z m 7.50344,-3.38667 c -7.8e-4,-0.18892 -0.33633,-1.02799 -0.74548,-1.86461 -0.67136,-1.37279 -0.70714,-1.52112 -0.36694,-1.52112 0.31282,0 0.33539,-0.0501 0.13262,-0.29441 -0.29762,-0.35861 -0.66869,-0.37804 -0.93754,-0.0491 -0.32713,0.40026 1.24657,4.07269 1.74521,4.07269 0.0955,0 0.173,-0.15457 0.17213,-0.34348 z m -40.627148,2.8386 c -0.64792,-0.32605 -0.7656,-1.29293 -0.21772,-1.78875 0.56608,-0.5123 1.77703,-0.46823 2.22164,0.0808 0.47141,0.58215 0.44289,0.90557 -0.13039,1.47886 -0.53183,0.53183 -1.12721,0.60462 -1.87353,0.22905 z m -4.98431,-0.19858 c -0.51523,-0.37674 -0.34611,-1.32876 0.30019,-1.68986 0.46317,-0.25877 0.57069,-0.25383 1.03044,0.0474 0.361,0.23654 0.5133,0.50764 0.5133,0.91373 0,0.87742 -1.06498,1.2983 -1.84393,0.72873 z m 50.334153,-0.67727 c -0.29395,-1.17963 -2.297335,-6.024 -2.840025,-6.86744 -0.4485,-0.69705 -1.37238,-1.22887 -2.13482,-1.22887 -0.34812,0 -0.52184,-0.13155 -0.60353,-0.45703 -0.0631,-0.25137 -0.33763,-0.55861 -0.6101,-0.68275 -0.60861,-0.27731 -0.60861,-0.28036 -0.003,-1.77077 0.80388,-1.97835 1.99117,-6.26902 2.63779,-9.53254 0.65933,-3.3277 0.87099,-4.04393 1.19502,-4.04393 0.22462,0 0.17605,0.52971 -0.31423,3.42712 -0.14542,0.85938 -0.22995,1.59697 -0.18784,1.63907 0.12486,0.12487 0.46739,-1.31952 0.99893,-4.21234 0.88944,-4.84062 1.604885,-7.25867 2.882405,-9.7419 0.86808,-1.687344 1.24046,-1.996604 2.16981,-1.801954 1.05588,0.22115 3.69117,1.627474 5.17201,2.760054 1.7434,1.33339 3.40347,3.32876 3.40347,4.09091 0,0.16308 -0.79836,2.42983 -1.77414,5.0372 -2.58567,6.90917 -4.1377,11.40329 -5.27994,15.28885 -1.22085,4.15297 -1.45252,4.71058 -1.9571,4.71058 -0.7972,0 -1.16173,-0.77983 -2.86821,-6.13579 -0.507705,-1.5935 -0.990475,-2.93889 -1.072815,-2.98979 -0.3539,-0.21872 0.833295,4.8626 2.087165,8.93324 l 0.69646,2.26106 -0.53249,1.12465 c -0.29288,0.61856 -0.6,1.12467 -0.6825,1.12467 -0.0825,0 -0.25454,-0.41955 -0.38232,-0.9323 z m -39.118146,0.41194 c -0.656967,-0.0823 -0.736027,-0.15231 -0.736027,-0.65207 v -0.5599 l 8.979538,-0.0714 c 4.93874,-0.0393 9.08994,-0.0375 9.22488,0.004 0.13494,0.0414 0.24534,0.33089 0.24534,0.6432 v 0.56782 h -3.20663 c -1.76365,0 -5.58363,0.0361 -8.48885,0.0803 -2.90522,0.0442 -5.61343,0.0388 -6.018251,-0.0119 z m -50.484897,-1.09048 c -0.685919,-2.98963 -1.9949095,-11.73995 -2.7391895,-18.31098 -1.02051,-9.00965 -1.35718,-13.86538 -1.36766,-19.725524 -0.01,-5.46229 0.002,-5.63876 0.51214,-7.50527 1.1985,-4.38753 3.4815495,-7.23748 8.0909095,-10.09997 3.24159,-2.01308 9.24969,-5.303829 19.78322,-10.835644 l 2.69588,-1.41577 -0.55645,1.176602 c -0.30605,0.647131 -0.67228,1.722456 -0.81386,2.389613 l -0.25742,1.213 -3.55034,1.70854 c -1.95268,0.9397 -5.14016,2.578924 -7.08327,3.642699 -10.53788,5.76914 -12.64123,7.33111 -14.2274,10.56542 -1.04801,2.13698 -1.376609,3.74972 -1.5106995,7.41439 -0.21107,5.76872 0.9647295,19.367174 2.6966495,31.187484 0.32424,2.21299 0.68916,4.70896 0.81091,5.54661 0.12175,0.83765 0.18541,1.54623 0.14146,1.57462 -0.0439,0.0284 -0.6293,0.47297 -1.30077,0.98793 -1.1802,0.90511 -1.22429,0.92131 -1.32411,0.48625 z m 21.91518,-2.44235 c 0.078,-0.91758 0.81792,-1.53092 1.60772,-1.33269 0.58497,0.14682 1.00201,0.6675 1.20902,1.50946 l 0.13271,0.53975 h -1.50518 -1.50518 z m 5.65473,0.35352 c 0,-0.0917 -0.26336,-0.55541 -0.58525,-1.03044 -0.32189,-0.47505 -0.58686,-1.00537 -0.58882,-1.17852 -0.006,-0.49747 0.90766,-1.35351 1.44405,-1.35351 0.95343,0 2.14035,1.48367 2.55151,3.18945 l 0.1301,0.53976 h -1.4758 c -0.81168,0 -1.47579,-0.075 -1.47579,-0.16674 z m 4.75964,-1.46147 c -0.45879,-0.90213 -0.83416,-1.73889 -0.83416,-1.85948 0,-0.31943 0.8026,-0.83034 1.30439,-0.83034 0.99901,0 2.29278,1.86115 2.45592,3.53293 l 0.067,0.68696 -1.07951,0.0551 -1.0795,0.0551 z m 8.39072,0.57073 c 0,-0.0419 0.28604,-0.6822 0.63564,-1.42298 0.53063,-1.12438 0.63601,-1.57885 0.63789,-2.75102 0.002,-1.27823 -0.0522,-1.47183 -0.60558,-2.15901 -0.79994,-0.99347 -1.83422,-1.36327 -2.9839,-1.06688 -1.20129,0.30969 -1.70709,0.6977 -2.63623,2.02228 -0.7339,1.04624 -0.86981,1.15158 -1.31875,1.02216 -0.27529,-0.0794 -1.0375,-0.15252 -1.69381,-0.16259 -1.02661,-0.0157 -1.2962,0.0602 -1.93001,0.5439 l -0.73671,0.5622 -0.80216,-0.36172 c -1.52272,-0.68665 -3.1561,-0.26001 -3.91246,1.02193 -0.33111,0.56119 -0.47518,0.65384 -0.82036,0.52757 -0.23029,-0.0842 -0.87697,-0.15316 -1.43706,-0.15316 h -1.01834 l -1.14418,-2.25715 c -0.6293,-1.24143 -2.00655,-3.60519 -3.06055,-5.25279 -2.73762,-4.27942 -3.47415,-5.74017 -3.47415,-6.89033 0,-1.18706 0.85278,-2.94561 1.63034,-3.36198 0.50643,-0.27118 0.57299,-0.26519 0.82561,0.0743 0.15112,0.20311 0.37616,0.86554 0.50008,1.47206 0.24587,1.20341 1.29406,4.07985 1.54272,4.23353 0.0852,0.0527 -0.008,-0.58602 -0.20761,-1.41935 -0.45278,-1.89197 -0.47594,-4.76568 -0.0525,-6.50759 0.70618,-2.90467 3.16151,-6.48959 4.44476,-6.48959 0.68767,0 0.88679,0.3991 1.25263,2.51063 0.35397,2.04307 0.79346,2.85424 2.4866,4.58956 3.0649,3.14126 6.886,5.35833 13.97617,8.10923 2.15902,0.83767 4.32294,1.72272 4.80872,1.96677 1.33761,0.672 2.38241,1.0837 2.264,0.89211 -0.0582,-0.0942 -0.85639,-0.68107 -1.77374,-1.3042 -1.77409,-1.2051 -2.13932,-1.65685 -0.93188,-1.15264 1.47099,0.61427 2.41812,1.30685 4.21973,3.08564 2.667638,2.63385 3.400038,3.79919 4.475178,7.12063 0.34807,1.07528 0.75322,2.12927 0.90035,2.3422 0.14713,0.21293 0.26751,0.45582 0.26751,0.53975 0,0.0839 -3.2238,0.15261 -7.163998,0.15261 -3.9402,0 -7.164,-0.0343 -7.164,-0.0761 z m -3.67308,-0.58408 c -0.2007,-0.25515 -0.53357,-0.83792 -0.73971,-1.29506 l -0.37479,-0.83116 0.46557,-0.87761 c 0.25606,-0.48267 0.78125,-1.23301 1.16707,-1.66739 0.57934,-0.65225 0.83408,-0.79349 1.46267,-0.81105 0.61069,-0.0171 0.85771,0.091 1.2496,0.54659 0.42603,0.49529 0.4736,0.69322 0.37227,1.54884 -0.32447,2.73963 -2.50174,4.78646 -3.60268,3.38684 z m 19.896878,-0.33171 c -0.75531,-0.59413 -0.99141,-1.72087 -0.79977,-3.81682 0.27008,-2.95403 0.19338,-3.89656 -0.39943,-4.9081 -0.717,-1.22347 -1.756,-1.93434 -6.034598,-4.12879 -5.87404,-3.01272 -7.01921,-3.88214 -9.51768,-7.22592 -4.25558,-5.69539 -7.75072,-13.348914 -9.15675,-20.051134 -1.58186,-7.54034 -1.39563,-13.81083 0.46949,-15.807439 0.45448,-0.48652 0.56684,-0.84559 0.74963,-2.39551 0.7265,-6.160071 4.76248,-11.5448 10.98717,-14.658876 2.09578,-1.04847 5.11328,-2.052417 7.488108,-2.491355 2.67695,-0.494775 9.35867,-0.493684 12.05087,0.002 4.59099,0.845232 8.08451,2.323268 10.78041,4.560976 3.64128,3.02241 7.24856,9.117058 8.29343,14.012065 0.4093,1.917504 0.35077,2.595139 -0.34622,4.008559 l -0.62535,1.26816 -0.35772,-0.79898 c -0.66103,-1.47646 -2.12881,-3.468949 -3.44154,-4.671829 -1.66289,-1.52373 -3.85829,-2.62688 -7.80094,-3.9198 -8.10294,-2.657233 -16.70619,-3.3596 -23.973348,-1.957183 -2.68453,0.518062 -6.212,1.67334 -8.2261,2.694133 -1.54673,0.78391 -2.71321,1.5592 -2.02325,1.34473 0.17961,-0.0558 1.42166,-0.4516 2.7601,-0.87949 4.70688,-1.504761 8.40126,-2.041849 14.087308,-2.048012 4.40889,-0.0048 6.91432,0.219016 10.50066,0.937952 8.32297,1.66847 13.69003,4.49378 16.98835,8.942979 l 1.02362,1.38078 -0.78087,2.35289 -0.78087,2.35289 -0.72372,-1.23492 c -0.79561,-1.35761 -2.96975,-4.0809 -3.258,-4.0809 -0.10005,0 0.28914,0.62616 0.86487,1.39146 1.05727,1.40542 3.1768,5.22598 2.99825,5.40452 -0.0531,0.0531 -0.43184,-0.46058 -0.84154,-1.1416 -3.3614,-5.58736 -7.32513,-8.52647 -13.836,-10.259409 -2.97329,-0.79137 -5.5912,-1.07976 -9.79946,-1.0795 -6.247368,3.9e-4 -10.192728,0.74051 -14.069248,2.639289 -1.77141,0.86767 -2.45291,1.33122 -3.53368,2.40359 -2.26692,2.24931 -3.36918,5.00836 -3.11842,7.80565 0.57101,6.36965 4.1445,16.397664 7.77812,21.827154 2.62549,3.9231 3.87674,5.03809 7.93824,7.07377 6.062318,3.03851 7.805198,4.31881 8.535188,6.26988 0.35105,0.93826 0.38442,1.33522 0.27024,3.2151 l -0.13025,2.14466 -0.70652,0.0279 -0.70652,0.0279 0.77434,0.11935 c 0.75027,0.11564 0.78529,0.15598 1.12591,1.297 0.45543,1.52555 0.44603,1.77991 -0.0793,2.14788 -0.57193,0.4006 -0.78262,0.38589 -1.39719,-0.0975 z M 44.960967,78.026746 c 3.71409,-3.02178 8.29956,-5.049239 13.71988,-6.066239 1.92762,-0.36168 3.044498,-0.43816 6.523978,-0.44677 4.18674,-0.0104 4.42841,-0.14981 0.70865,-0.40889 -6.411258,-0.44654 -14.863018,1.71132 -19.784098,5.051169 -1.57433,1.06846 -3.17945,2.72226 -3.76646,3.88066 -0.74158,1.46345 -0.59583,1.55419 0.38996,0.2428 0.48564,-0.64603 1.47927,-1.65975 2.20809,-2.25273 z M 81.826045,57.87818 c -0.47074,-0.520166 -2.6989,-1.66043 -4.23426,-2.166889 -3.32367,-1.096361 -8.12467,-1.70087 -11.97272,-1.507524 -4.493548,0.22578 -4.150371,0.444566 0.88324,0.563079 6.27245,0.14768 9.28211,0.710186 13.34663,2.494485 1.18746,0.521287 2.19478,0.958083 2.2385,0.970656 0.0437,0.01258 -0.0739,-0.146638 -0.26139,-0.353807 z m 9.21051,68.09119 c 0.0667,-0.10795 0.71227,-0.18611 1.43457,-0.1737 1.22049,0.021 1.2578,0.034 0.52817,0.18496 -1.11283,0.23018 -2.10843,0.22447 -1.96274,-0.0113 z m 34.838635,-0.6091 c 0,-0.11911 -0.47465,-1.4222 -1.05478,-2.89577 l -1.05479,-2.67921 0.45044,-4.85745 c 0.81056,-8.7409 0.96437,-11.54722 0.96542,-17.614464 9.8e-4,-5.59847 -0.0274,-6.0881 -0.43757,-7.55655 -0.66747,-2.38943 -1.64589,-4.20631 -3.04261,-5.64992 -1.47781,-1.52742 -2.71665,-2.3387 -8.14303,-5.33261 -3.512,-1.93767 -4.19094,-2.3841 -4.29418,-2.82352 -0.24901,-1.059945 -0.89774,-1.762505 -3.29369,-3.567019 -1.34885,-1.01588 -2.41666,-1.88286 -2.37291,-1.92661 0.12154,-0.12153 10.84988,5.205519 13.73978,6.822359 7.77907,4.35222 10.36044,7.9817 11.1058,15.61508 0.33001,3.3797 -0.15405,13.496904 -1.09883,22.966674 -0.49656,4.9771 -1.13319,9.71556 -1.30533,9.71556 -0.09,0 -0.16372,-0.0974 -0.16372,-0.21655 z M 49.720877,113.98458 c -4.47514,-1.80315 -7.72846,-3.77694 -10.00998,-6.07306 -1.73124,-1.74232 -2.61101,-3.15171 -3.05626,-4.89612 -0.83559,-3.273654 1.16537,-6.263704 3.26226,-4.874804 0.52271,0.34621 0.96884,1.03077 1.9552,3.000124 3.28822,6.5652 5.45629,9.46573 9.79778,13.10788 0.47822,0.40119 0.78735,0.72833 0.68696,0.72698 -0.1004,-10e-4 -1.28658,-0.44729 -2.63596,-0.991 z m 17.173968,-0.57041 c -1.41962,-0.22311 -2.46858,-0.53395 -3.69223,-1.09416 -1.34315,-0.61492 -1.686211,-0.97813 -1.29416,-1.37017 0.24153,-0.24153 0.42498,-0.24051 1.35706,0.008 0.59277,0.15775 1.37564,0.28786 1.73969,0.28914 1.03763,0.004 0.50775,-0.40899 -1.89358,-1.47467 -3.177978,-1.41032 -4.760628,-2.23557 -4.879028,-2.54413 -0.23998,-0.62536 0.17637,-0.64224 1.80774,-0.0733 0.92352,0.32208 1.767288,0.55621 1.875038,0.52028 0.10776,-0.0359 -0.715048,-0.58946 -1.828468,-1.23008 -3.39148,-1.95136 -4.08526,-2.43647 -4.08526,-2.85648 0,-0.48771 0.3238,-0.48733 1.40155,0.002 0.47058,0.21353 0.966,0.39017 1.10094,0.39255 0.58533,0.0103 0.11931,-0.44308 -1.727,-1.6801 -1.56978,-1.05174 -1.96037,-1.40529 -1.91367,-1.7322 0.0623,-0.43605 0.17468,-0.44952 1.68189,-0.2015 1.2076,0.19873 0.95932,-0.19411 -0.91368,-1.445664 -1.81564,-1.21323 -2.23528,-1.63381 -2.06719,-2.07184 0.15167,-0.39525 0.21561,-0.39669 1.25951,-0.0284 0.45895,0.16192 1.00944,0.29441 1.22332,0.29441 0.26503,0 0.35289,-0.0938 0.2759,-0.29441 -0.0793,-0.20677 0.0167,-0.29531 0.32248,-0.29742 0.2395,-0.002 0.55643,-0.0796 0.70428,-0.1733 0.19508,-0.12358 0.0605,-0.23693 -0.49069,-0.41319 -1.39033,-0.44462 -3.00819,-1.4183 -3.81996,-2.29896 -0.44136,-0.47882 -0.75902,-0.91405 -0.7059,-0.96716 0.0531,-0.0531 0.56293,0.0419 1.13292,0.21119 1.32739,0.3942 3.42304,0.39307 4.96039,-0.003 0.66329,-0.17074 2.22711,-0.789 3.475148,-1.37391 3.31357,-1.55295 3.78948,-1.51641 9.58116,0.73578 4.1798,1.62538 5.55921,1.96246 8.16962,1.99638 4.07943,0.053 5.93034,-1.05679 6.79418,-4.07378 0.39378,-1.37529 0.4661,-1.10466 0.15648,0.58556 -0.26651,1.45487 -1.20232,3.24543 -2.11496,4.04674 -1.64007,1.44 -4.52123,2.22906 -7.4854,2.05003 -1.64745,-0.0995 -4.38967,-0.49972 -5.57338,-0.81342 -0.31618,-0.0838 -0.29307,-0.0408 0.0986,0.18364 1.74112,0.9975 6.72873,1.59493 9.23929,1.1067 2.35436,-0.45785 3.99123,-1.46032 5.6273,-3.44632 l 0.64676,-0.7851 -0.11066,0.65356 c -0.23458,1.3855 -1.11705,2.61534 -2.96018,4.1254 l -0.78509,0.64323 0.73603,-0.11936 c 0.69481,-0.11267 0.998,0.1059 0.53975,0.38912 -0.2504,0.15475 -0.25759,0.88323 -0.009,0.88323 0.10315,0 0.51293,-0.22081 0.91062,-0.49068 0.8189,-0.55572 1.22076,-0.6175 1.37652,-0.21161 0.1665,0.43389 -0.26219,1.073924 -1.74896,2.611174 -1.07587,1.1124 -1.30306,1.4445 -1.05366,1.54021 0.17487,0.0671 0.61767,-0.0632 0.98399,-0.28963 0.83021,-0.5131 1.11039,-0.51963 1.11039,-0.0259 0,0.55846 -1.06129,1.68195 -2.03333,2.15251 -1.06235,0.51427 -1.896,0.5156 -2.54633,0.004 -0.28097,-0.22101 -1.68398,-0.89488 -3.11779,-1.49749 -4.71259,-1.98063 -5.45465,-2.13703 -6.92496,-1.45946 -1.12735,0.51951 -2.55071,1.85271 -3.02581,2.83414 -0.51498,1.06381 -0.51751,1.98632 -0.009,3.34494 0.55357,1.47953 1.66431,2.45777 3.58684,3.15895 0.8366,0.30513 1.56134,0.61991 1.61055,0.69953 0.10493,0.16979 -1.42713,0.85234 -2.55494,1.13826 -1.19549,0.30309 -3.02882,0.40829 -4.12175,0.23653 z m -1.4062,-14.207224 c -0.313,-0.44774 -1.03899,-1.11882 -1.61331,-1.49131 l -1.04423,-0.67727 0.12917,-0.99106 c 0.071,-0.5451 0.17981,-1.21189 0.24168,-1.48177 0.20528,-0.89533 -0.30874,-0.14707 -0.73803,1.07435 -0.53266,1.5155 -0.40748,1.90091 0.8478,2.61012 0.56736,0.32054 1.38486,0.94732 1.81666,1.39285 0.93947,0.969294 1.15786,0.705044 0.36026,-0.43591 z m -3.40251,-6.31695 c 0.5699,-0.15851 1.76647,-1.01336 1.76647,-1.26198 0,-0.0933 -0.70135,0.14889 -1.55854,0.53828 -0.857201,0.38937 -1.512188,0.78297 -1.455538,0.87462 0.0566,0.0917 0.25014,0.12592 0.42997,0.0761 0.179817,-0.0498 0.547758,-0.15197 0.817638,-0.22704 z m 11.38924,16.888834 c -1.56234,-0.57296 -2.99482,-1.13805 -3.18328,-1.25574 -0.38359,-0.23956 -1.02878,-1.37649 -0.87079,-1.53447 0.10541,-0.10542 0.29943,-0.0429 3.99966,1.28845 1.21444,0.43697 2.20808,0.71153 2.20808,0.61013 0,-0.16473 -3.24271,-1.8074 -5.45368,-2.7627 l -0.84125,-0.36347 0.29845,-0.57713 c 0.16414,-0.31742 0.69404,-0.90129 1.17755,-1.29749 l 0.87911,-0.72036 2.31339,0.98806 c 1.27236,0.54344 2.82125,1.17605 3.44196,1.4058 0.62072,0.22974 1.12858,0.43686 1.12858,0.46025 0,0.0234 -0.17665,0.38902 -0.39255,0.8125 -0.44643,0.87564 -0.50213,1.8019 -0.15426,2.56539 0.21561,0.47321 0.18655,0.56748 -0.30536,0.9906 -0.299,0.25719 -0.73744,0.45959 -0.97431,0.44978 -0.23687,-0.01 -1.70895,-0.48664 -3.2713,-1.0596 z m 4.11641,-3.15648 c 0,-0.41424 -4.76329,-2.68446 -5.69195,-2.71282 -1.20348,-0.0368 -0.77439,0.45763 1.07951,1.24381 0.97156,0.412 2.25224,0.97961 2.84597,1.26135 1.2368,0.58691 1.76647,0.64917 1.76647,0.20766 z m 2.06088,1.90255 c -0.3345,-0.0715 -0.58883,-0.25224 -0.58883,-0.41839 0,-0.24575 0.36064,-0.28262 2.25716,-0.23074 2.65622,0.0727 4.94553,-0.28415 7.27296,-1.13356 3.9043,-1.42489 7.47792,-4.14646 9.6066,-7.316134 0.51772,-0.77091 1.02538,-1.31774 1.22671,-1.32138 0.472,-0.009 0.4533,0.048 -0.47252,1.42753 -3.07145,4.576854 -7.74708,7.815514 -12.78576,8.856274 -1.49678,0.30917 -5.33287,0.38947 -6.51632,0.1364 z m 11.6783,-0.78584 c 0,-0.10796 0.0883,-0.25086 0.19627,-0.31758 0.10796,-0.0667 0.19628,-0.033 0.19628,0.075 0,0.10795 -0.0883,0.25086 -0.19628,0.31758 -0.10795,0.0667 -0.19627,0.033 -0.19627,-0.075 z m 1.39992,-5.56505 c 0.48913,-1.76509 0.6295,-1.93339 0.44958,-0.53906 -0.16409,1.27176 -0.39374,1.95918 -0.65449,1.95918 -0.10375,0 -0.0115,-0.63905 0.20491,-1.42012 z m 3.27975,-2.995764 0.0672,-1.07978 h 0.68979 c 0.51612,0 0.66279,0.0704 0.58255,0.27947 -0.19592,0.51058 -1.11502,1.879544 -1.26207,1.879814 -0.0796,1.5e-4 -0.11448,-0.485634 -0.0775,-1.079504 z m 3.56384,-2.04469 c -0.56011,-0.16058 -0.557,-0.3473 0.032,-1.92154 0.21381,-0.57146 0.503845,-1.03903 0.644525,-1.03903 0.63743,0 1.48249,0.26572 1.48251,0.46615 1e-5,0.12145 -0.24045,0.77283 -0.53436,1.44752 -0.54505,1.25119 -0.65809,1.32403 -1.624675,1.0469 z m -4.85586,-3.10584 c -1.39206,-0.0791 -1.44044,-0.1283 -1.91826,-1.94862 -0.7519,-2.86445 -0.7455,-6.8214 0.0162,-10.01039 0.43383,-1.81637 2.1817,-5.35568 3.47293,-7.03244 1.3535,-1.757609 2.97914,-3.038559 4.036115,-3.180329 0.64901,-0.087 1.06211,0.0279 2.3018,0.64043 l 1.51084,0.74651 -0.85889,0.255 c -1.80488,0.535864 -3.851215,2.996219 -5.313985,6.389149 -1.54812,3.59091 -2.26259,7.72555 -2.05314,11.8816 0.0666,1.3224 0.10093,2.38734 0.0762,2.36654 -0.0247,-0.0208 -0.59614,-0.0692 -1.26978,-0.10745 z m -1.14294,-7.52935 c 0.77729,-3.8949 1.8888,-6.74015 3.77717,-9.66883 0.47773,-0.74091 0.82918,-1.38653 0.78101,-1.43471 -0.14694,-0.14694 -1.75363,1.82201 -2.52268,3.09146 -1.0091,1.6657 -1.83898,3.74484 -2.18749,5.48045 -0.27535,1.3713 -0.62861,5.63722 -0.43071,5.20126 0.049,-0.10795 0.31122,-1.30928 0.5827,-2.66963 z m 8.678915,7.11941 c -0.40932,-0.45228 -0.42801,-2.28221 -0.0304,-2.97772 0.26786,-0.46857 0.28081,-0.43982 0.28745,0.63789 0.004,0.62072 0.0825,1.12858 0.17485,1.12858 0.17236,0 0.41705,-2.01728 0.41954,-3.4587 0.003,-1.9815 2.26226,-8.65468 3.35862,-9.9222 l 0.56456,-0.6527 0.39439,0.46336 c 0.33353,0.39186 0.3944,0.74509 0.3944,2.28896 0,3.0859 -0.90506,6.77096 -2.4634,10.03001 -1.18127,2.47046 -2.29335,3.35385 -3.09999,2.46252 z m 2.87998,-4.27153 c 0.65692,-1.89725 1.51233,-5.38334 1.4998,-6.11211 -0.005,-0.30647 -0.0272,-0.31061 -0.18807,-0.0355 -0.19041,0.3256 -2.01004,6.64233 -2.25669,7.83399 -0.25882,1.25039 0.23044,0.37729 0.94496,-1.68636 z m -7.512515,3.69817 c -0.30005,-1.08043 -0.25051,-5.39029 0.0838,-7.28988 0.69191,-3.93163 2.13754,-7.47691 3.968515,-9.73245 1.6772,-2.066095 2.8832,-2.520469 4.35399,-1.640395 1.44186,0.862755 1.4815,0.939965 0.83241,1.621645 -1.60861,1.68943 -3.69111,6.54234 -4.74726,11.06272 -0.37751,1.61575 -1.03106,3.18145 -1.32799,3.18145 -0.22349,0 0.10605,-2.7668 0.55435,-4.6544 0.39398,-1.65888 1.2588,-4.02894 2.3405,-6.41426 1.06953,-2.35845 0.38732,-1.71604 -1.12427,1.05869 -1.0934,2.00706 -2.15099,4.81472 -2.615755,6.94424 -0.21265,0.97432 -0.63811,2.34975 -0.94548,3.05651 -0.30736,0.70676 -0.66224,1.79286 -0.78862,2.41359 -0.12638,0.62071 -0.26353,1.12856 -0.30478,1.12856 -0.0413,0 -0.16698,-0.3312 -0.2794,-0.73601 z m 3.230085,-10.01796 c 0.75142,-2.06621 0.81988,-2.83509 0.13205,-1.4831 -0.38456,0.75591 -1.213445,3.25664 -1.213445,3.66096 0,0.50733 0.391905,-0.28194 1.081395,-2.17786 z m -21.863335,8.52027 c 2.311,-0.82584 3.91935,-2.68496 4.77462,-5.51911 l 0.29615,-0.98137 -0.10069,1.27578 c -0.12835,1.62639 -0.99311,3.47602 -1.97543,4.22527 -0.848,0.6468 -2.42159,1.27373 -3.16706,1.26179 -0.50229,-0.008 -0.49094,-0.0253 0.17241,-0.26236 z m -40.360838,-1.57316 c -2.23143,-3.42331 -3.65338,-7.78131 -3.68647,-11.29828 -0.012,-1.27745 0.084,-1.71386 0.70148,-3.18875 1.06094,-2.534019 1.99677,-3.862619 2.42153,-3.437849 0.0567,0.0567 0.3153,1.23792 0.5746,2.624874 0.33756,1.805585 0.47432,3.246335 0.48156,5.073285 0.014,3.52692 0.35788,10.24781 0.56994,11.13855 0.0964,0.40482 0.13839,0.73603 0.0934,0.73603 -0.045,0 -0.56523,-0.74154 -1.156,-1.64786 z m -1.15718,-4.96486 c -0.71705,-2.55032 -1.10752,-5.00357 -1.1359,-7.13674 -0.0218,-1.63549 0.0404,-2.01767 0.48703,-2.993175 0.28159,-0.61505 0.55393,-1.118294 0.6052,-1.118294 0.0513,0 0.24366,0.463704 0.42753,1.030434 0.63313,1.951465 0.72791,1.618235 0.25122,-0.88322 -0.24665,-1.294304 -0.51988,-1.414574 -1.16271,-0.511804 -1.33399,1.873409 -1.63533,3.975439 -1.05448,7.355669 0.39023,2.27098 1.72775,6.35643 1.99387,6.09031 0.0445,-0.0445 -0.14079,-0.86943 -0.41176,-1.83318 z m 16.97847,5.86224 c -2.17569,-0.82717 -3.56722,-2.94951 -3.53429,-5.39045 l 0.0165,-1.21935 0.23451,1.07951 c 0.5131,2.36195 2.12031,4.48316 4.09249,5.40131 0.76686,0.35702 0.90959,0.47981 0.54695,0.47054 -0.26987,-0.007 -0.88012,-0.1606 -1.35611,-0.34156 z m 15.395948,-0.77523 c -1.10395,-0.60587 -2.04076,-1.77821 -1.62953,-2.03922 0.48965,-0.31077 0.93099,-0.15509 1.2368,0.43627 0.17081,0.3303 0.62497,0.94856 1.00925,1.37392 0.82202,0.90987 0.70395,0.95373 -0.61652,0.22903 z m -4.22614,-1.38089 c 0,-0.39346 0.52065,-0.83645 0.83935,-0.71415 0.42361,0.16255 0.43961,0.59576 0.0278,0.75378 -0.43699,0.16769 -0.86718,0.14804 -0.86718,-0.0396 z m 3.36786,-5.2815 c -0.33588,-0.0639 -0.59262,-0.38672 -0.95433,-1.19997 l -0.49483,-1.11259 -0.44636,1.00508 c -0.5553,1.25037 -0.88351,1.49664 -0.88351,0.66296 v -0.61229 l -1.32485,0.12643 c -0.72867,0.0695 -2.03857,0.0351 -2.9109,-0.0766 -1.700648,-0.21768 -3.954778,-0.95222 -3.682588,-1.20003 0.34325,-0.3125 5.909698,-1.77016 6.759778,-1.77016 2.864,0 10.32729,1.02454 12.64059,1.73528 l 0.58882,0.1809 -0.73705,0.32075 c -1.62573,0.70749 -3.28806,0.94979 -5.80716,0.84646 l -2.42246,-0.0994 0.12513,0.667 c 0.0688,0.36685 0.099,0.65498 0.0672,0.64028 -0.0319,-0.0147 -0.26473,-0.0661 -0.51745,-0.11414 z M 39.545337,72.751047 c -0.11116,-0.57829 -0.25889,-1.64761 -0.3283,-2.37628 l -0.1262,-1.32485 h 1.26572 1.26572 l 0.12166,0.73603 c 0.0669,0.40482 0.12263,0.87516 0.12382,1.0452 0.002,0.25252 -1.31672,2.14044 -1.95765,2.80313 -0.0895,0.0925 -0.25361,-0.30495 -0.36477,-0.88323 z m 59.423168,-2.88366 c -0.23682,-0.71948 -0.72155,-1.890715 -1.07718,-2.602738 l -0.64659,-1.294588 0.67791,-0.323277 0.67793,-0.323277 0.39055,0.636495 c 0.69157,1.127074 2.024035,4.856385 1.735155,4.856385 -0.0412,0 -0.35666,0.0808 -0.70104,0.17958 l -0.626145,0.17957 z M 39.907177,67.053988 c 0,-0.440425 1.9056,-4.123501 2.65348,-5.128552 0.84044,-1.129445 1.08869,-1.248179 1.73048,-0.827664 l 0.49019,0.321187 -1.01409,1.521112 c -0.75444,1.131647 -2.08024,3.603738 -2.18577,4.07562 -0.003,0.01466 -0.38134,0.08866 -0.84013,0.164458 -0.63619,0.105105 -0.83416,0.07516 -0.83416,-0.126161 z m 55.253598,-2.12192 c -0.27123,-0.429658 -0.49315,-0.853675 -0.49315,-0.942259 0,-0.161596 0.97517,-0.680241 2.89336,-1.538837 l 1.02877,-0.460481 0.49236,0.971627 c 0.2708,0.534398 0.49236,1.011877 0.49236,1.061069 0,0.04919 -0.33121,0.196751 -0.73603,0.32791 -0.40481,0.131156 -1.24137,0.491299 -1.859,0.800317 -0.61764,0.309017 -1.16855,0.56185 -1.22426,0.56185 -0.0557,0 -0.32318,-0.351539 -0.59441,-0.781196 z m -2.68102,-3.178348 c -2.50987,-2.83405 -5.95258,-5.627702 -9.04252,-7.337728 -6.96252,-3.853167 -16.74666,-4.502777 -26.374378,-1.751106 -3.89734,1.113889 -7.68379,3.551043 -10.21495,6.574868 l -1.27676,1.525277 -0.77111,-0.504858 c -0.42411,-0.277673 -0.77111,-0.557067 -0.77111,-0.620876 0,-0.242771 2.62715,-3.087634 3.69351,-3.999593 3.7046,-3.168201 8.0463,-5.236434 13.20949,-6.292542 6.165508,-1.261129 14.199188,-1.270719 19.015458,-0.0227 5.61745,1.455629 9.63456,3.814639 14.10747,8.284484 1.55212,1.551051 2.77055,2.871573 2.70764,2.934488 -0.16531,0.165302 -1.66224,-0.749317 -4.3258,-2.643039 -3.26317,-2.320034 -5.15669,-3.466076 -7.87718,-4.767632 -7.16108,-3.426045 -13.91881,-4.484437 -21.15351,-3.313052 -0.83936,0.135902 -1.48977,0.283425 -1.44537,0.32783 0.0444,0.0444 1.33968,-0.01399 2.87838,-0.129772 4.64651,-0.349625 9.96886,0.158662 14.06663,1.34337 4.55144,1.315868 8.35507,3.42182 12.50323,6.922657 2.84544,2.401407 3.45986,2.841367 4.41455,3.161105 l 0.86138,0.288492 -1.42751,0.714153 c -0.78513,0.392785 -1.45071,0.714155 -1.47906,0.714155 -0.0284,0 -0.61267,-0.633593 -1.29848,-1.407981 z M 61.444154,50.285307 c -0.0652,-0.06522 -0.234497,-0.07219 -0.376187,-0.01549 -0.15657,0.06266 -0.11007,0.109164 0.11858,0.118581 0.206907,0.0085 0.322827,-0.03787 0.257607,-0.103087 z m 29.494261,2.349504 c -1.57592,-1.026489 -5.52091,-2.894629 -7.55655,-3.578395 -6.4515,-2.167036 -17.12726,-2.636708 -24.722188,-1.087633 -1.86814,0.381027 -5.17255,1.498034 -6.33817,2.142525 -0.45879,0.253673 -0.83416,0.385145 -0.83416,0.292162 0,-0.322629 3.0935,-3.289771 4.24244,-4.069155 3.72256,-2.525191 7.669928,-3.553239 14.305448,-3.725691 4.3857,-0.11398 6.99906,0.156787 10.0519,1.041467 1.80461,0.522953 4.25427,1.671739 5.73025,2.687241 1.35165,0.929966 3.89242,3.433702 4.82381,4.753517 1.02027,1.445751 1.54313,2.258773 1.44837,2.252127 -0.0394,-0.0028 -0.55742,-0.321438 -1.15115,-0.708165 z"
       id="path368" /><path
       style="fill:#999999;fill-opacity:0;stroke-width:0.196274"
       d="M 5.8410316,142.43589 V 41.943596 H 106.33333 206.82563 V 142.43589 242.92819 H 106.33333 5.8410316 Z M 110.25031,216.82676 c 3.76558,-0.76973 7.42611,-2.42127 16.05606,-7.24409 6.72237,-3.75678 20.24033,-11.89128 20.25751,-12.19006 0.003,-0.054 -1.42962,-0.01 -3.18382,0.0986 l -3.18946,0.19677 -3.43479,2.08274 c -10.38252,6.29557 -20.23473,11.67279 -23.65378,12.90995 -4.9237,1.7816 -9.61241,1.84245 -14.768597,0.19163 -2.76832,-0.88631 -11.0253,-5.15864 -22.26936,-11.52264 -2.77532,-1.5708 -4.05447,-2.19061 -4.52092,-2.19061 -0.41003,0 -1.0464,-0.25506 -1.72137,-0.68991 -0.60736,-0.3913 -1.19915,-0.63873 -1.3673,-0.57166 -0.16304,0.065 -0.90905,0.27568 -1.65779,0.46813 l -1.36135,0.34988 0.79904,0.50442 c 5.41193,3.4164 22.06916,12.62497 27.40463,15.15004 3.13255,1.4825 6.674397,2.54397 9.750207,2.92208 1.41859,0.17438 4.88011,-0.0604 6.86109,-0.46531 z M 75.992943,196.29211 c 0.17076,-0.0655 0.31047,-0.20529 0.31047,-0.31059 0,-0.24303 -0.73469,-1.92994 -3.16369,-7.26418 -1.06669,-2.34251 -1.93944,-4.30662 -1.93944,-4.36469 0,-0.0581 1.04422,-1.8952 2.32049,-4.08253 3.57738,-6.1311 5.13793,-9.05696 5.13793,-9.63303 v -0.52656 h -1.94742 -1.94742 l -0.71465,1.52113 c -0.93143,1.98252 -4.2609,8.12366 -4.3539,8.03067 -0.0396,-0.0396 0.14285,-1.43207 0.40535,-3.09446 0.97079,-6.14788 1.0001,-6.48875 0.58489,-6.80341 -0.28928,-0.21923 -0.78181,-0.25218 -2.29115,-0.15327 -2.13706,0.14006 -2.4145,0.20661 -2.57198,0.61698 -0.21782,0.56766 -3.47577,24.65536 -3.41692,25.26308 l 0.0606,0.62559 1.86461,-7.8e-4 c 2.06439,-7.9e-4 2.84675,-0.14944 3.00877,-0.57165 0.0594,-0.15474 0.29483,-1.72324 0.52322,-3.48556 0.64871,-5.00548 0.502,-4.9728 2.04897,-0.45638 0.7395,2.15902 1.46649,4.12421 1.61553,4.3671 0.25155,0.40996 0.41017,0.44162 2.21313,0.44162 1.06819,0 2.08187,-0.0536 2.25263,-0.11914 z m 52.258757,-0.97083 c 0.56009,-0.11495 0.7193,-0.67728 1.26068,-4.45291 0.24364,-1.6992 0.46653,-3.06591 0.49531,-3.03713 0.0288,0.0288 0.58868,1.4632 1.24422,3.18759 0.65553,1.72439 1.33643,3.46647 1.51309,3.87129 l 0.32122,0.73603 h 2.03723 c 1.58593,0 2.06109,-0.0622 2.14498,-0.28081 0.11872,-0.30938 -1.47798,-4.2378 -3.63198,-8.93591 l -1.39108,-3.03409 0.81571,-1.38208 c 0.44864,-0.76014 2.25048,-3.60325 4.00409,-6.31803 3.84567,-5.9535 3.73621,-5.76049 3.39104,-5.97921 -0.36418,-0.23077 -3.25061,-0.21877 -3.68803,0.0153 -0.1949,0.10431 -0.88478,1.09893 -1.53308,2.21027 -1.54598,2.65022 -3.57694,5.79737 -3.58105,5.54918 -0.002,-0.10794 0.22776,-1.80732 0.5101,-3.77637 0.28235,-1.96906 0.46219,-3.71344 0.39965,-3.87641 -0.0881,-0.22966 -0.46276,-0.29631 -1.66552,-0.29631 -1.99527,0 -2.74359,0.15678 -2.99557,0.62762 -0.1117,0.20872 -0.81031,4.50281 -1.55247,9.54243 -0.74215,5.03962 -1.56513,10.52842 -1.82883,12.19734 -0.2637,1.66891 -0.43767,3.14331 -0.38659,3.27642 0.0511,0.1331 0.23992,0.27348 0.41964,0.31192 0.38795,0.083 3.08749,-0.031 3.69724,-0.15616 z m -6.5523,-0.21184 c 0.46181,-0.0678 0.84748,-0.26954 1.01763,-0.53227 0.33271,-0.51377 1.52011,-8.79641 1.29382,-9.02501 -0.0883,-0.0892 -1.17423,-0.21207 -2.41323,-0.27309 -1.80184,-0.0887 -2.28687,-0.0563 -2.42328,0.16214 -0.0938,0.15021 -0.26392,0.89136 -0.37804,1.64702 l -0.20749,1.37391 -1.71158,0.0567 c -1.33521,0.0442 -1.71157,-0.002 -1.71157,-0.20864 0,-0.14594 0.39649,-3.13029 0.88109,-6.63189 0.4846,-3.50159 0.88206,-6.43278 0.88323,-6.51374 0.001,-0.081 0.76292,-0.14721 1.69276,-0.14721 h 1.69062 l -0.13245,0.88324 -0.13245,0.88323 h 2.28208 c 1.25515,0 2.44653,-0.088 2.64752,-0.19558 0.2622,-0.14032 0.40249,-0.51459 0.49662,-1.32484 0.0722,-0.62111 0.29332,-2.26392 0.49148,-3.65071 0.19815,-1.38678 0.30872,-2.66747 0.24573,-2.84597 -0.28848,-0.81736 -0.67393,-1.0116 -1.99897,-1.00737 -2.38109,0.008 -9.17952,0.56394 -9.68045,0.79218 -0.73899,0.3367 -1.27086,1.46941 -1.5154,3.2273 -1.6533,11.88484 -2.75826,20.35436 -2.75826,21.14212 0,1.06717 0.4145,1.96193 1.06385,2.29651 0.41098,0.21176 8.79308,0.12448 10.37674,-0.10804 z m 24.45361,-0.1953 c 3.0797,-0.12201 3.45455,-0.175 3.86097,-0.54573 0.39875,-0.36372 0.5079,-0.85028 0.95625,-4.26242 0.27837,-2.1185 0.50613,-4.11754 0.50613,-4.44234 0,-0.74509 -0.27451,-0.82636 -2.80307,-0.8299 -2.18656,-0.003 -2.04388,-0.1194 -2.38225,1.94259 l -0.21222,1.29326 -1.71401,0.0567 -1.71401,0.0567 0.0958,-0.54734 c 0.0527,-0.30104 0.44948,-3.15289 0.88177,-6.33744 0.4323,-3.18454 0.83097,-5.98881 0.88594,-6.23169 0.0941,-0.4157 0.19831,-0.44161 1.77656,-0.44161 h 1.67662 l -0.13245,0.88323 -0.13245,0.88322 h 2.24192 c 1.48758,0 2.3524,-0.0825 2.57025,-0.24534 0.44734,-0.33427 1.43912,-7.47443 1.13196,-8.14931 -0.37359,-0.82083 -0.90597,-0.85903 -6.01935,-0.43193 -5.0157,0.41894 -5.4684,0.50212 -5.98855,1.1003 -0.75116,0.86386 -0.78872,1.07876 -2.72283,15.57724 -1.1204,8.39869 -1.17196,9.32368 -0.56287,10.098 0.6105,0.77612 1.0666,0.90591 2.81886,0.80207 0.86361,-0.0512 3.10507,-0.15385 4.98104,-0.22817 z m -86.264047,-0.31843 c 0.17535,-0.65432 0.14834,-1.52113 -0.0474,-1.52113 -0.36386,0 -3.16986,-1.97371 -4.43152,-3.11708 -0.72886,-0.66052 -1.44546,-1.20094 -1.59245,-1.20094 -0.47227,0 -2.38949,-0.78731 -3.11323,-1.27846 -0.38593,-0.2619 -0.70169,-0.40096 -0.70169,-0.30902 0,0.31002 3.09123,3.28223 4.5446,4.36964 1.88517,1.41047 4.92407,3.4986 5.09159,3.4986 0.0725,0 0.18499,-0.19872 0.25008,-0.4416 z m 46.746247,-0.22739 c 0.32999,-0.35786 0.51207,-1.24026 1.04022,-5.04105 0.93803,-6.75053 0.93114,-6.6348 0.45899,-7.70216 -0.28776,-0.65054 -0.65441,-1.07237 -1.25953,-1.44911 l -0.85361,-0.53145 0.88948,-0.59619 c 1.39627,-0.93587 1.73008,-1.75383 2.26312,-5.54554 0.81596,-5.80414 0.80168,-5.22652 0.14731,-5.95888 l -0.57625,-0.64494 -4.98408,-0.35818 c -2.74124,-0.197 -5.089327,-0.31822 -5.217977,-0.26939 -0.55989,0.21253 -0.83277,1.17444 -1.24456,4.38712 -0.23926,1.86671 -0.39121,3.43781 -0.33767,3.49136 0.0535,0.0535 1.75171,0.16962 3.773697,0.25793 2.79439,0.12208 3.71791,0.22622 3.84957,0.43414 0.28582,0.45138 0.20135,1.21619 -0.20857,1.88852 l -0.38633,0.63361 -2.1178,-0.12117 c -1.75166,-0.10023 -2.160217,-0.0701 -2.363197,0.17452 -0.33165,0.39961 -0.81417,3.95666 -0.59086,4.35569 0.13207,0.23599 0.51127,0.3128 1.586767,0.32141 2.42553,0.0194 2.93011,0.1742 3.34658,1.02659 0.3162,0.64714 0.33586,0.89826 0.15204,1.94184 -0.34997,1.98677 -0.28449,1.96023 -4.453977,1.80499 l -3.57363,-0.13306 -0.11604,0.5692 c -0.0638,0.31307 -0.25227,1.67325 -0.41877,3.02264 -0.16651,1.34938 -0.35079,2.69056 -0.4095,2.98039 -0.0754,0.37221 0.0123,0.64599 0.29857,0.9323 0.36206,0.36206 0.66206,0.40817 2.80969,0.43195 1.3224,0.0146 3.464237,0.0851 4.759647,0.15666 2.81401,0.15539 3.21493,0.10607 3.73667,-0.45974 z m -16.930987,-0.36328 c 0.28956,-0.18993 0.67063,-0.6241 0.84682,-0.96482 0.40307,-0.77944 1.89483,-10.74681 1.7806,-11.89725 -0.16292,-1.64087 -1.35203,-2.30847 -4.44848,-2.4975 -2.42519,-0.14806 -3.05829,-0.34927 -3.44364,-1.09443 -0.61794,-1.19499 -0.0604,-2.97438 1.01675,-3.24472 0.29094,-0.073 1.91697,-0.0755 3.61341,-0.006 2.3562,0.0971 3.13005,0.0693 3.27765,-0.11785 0.10627,-0.13475 0.3948,-1.81994 0.64117,-3.74487 l 0.44795,-3.49987 -0.48177,-0.48177 -0.48178,-0.48178 -4.99343,0.30908 c -7.10822,0.43998 -6.83523,0.23567 -7.64287,5.71992 -0.96589,6.55878 -1.07863,7.91154 -0.72857,8.74178 0.48621,1.15316 1.17019,1.39168 4.38929,1.53065 2.94086,0.12696 3.27857,0.23454 3.62889,1.15596 0.26997,0.71008 -0.15259,2.46177 -0.77121,3.19696 l -0.51857,0.61628 -3.49797,-0.12128 c -4.13702,-0.14344 -3.66609,-0.52907 -4.17853,3.42166 -0.36374,2.80434 -0.30914,3.61689 0.25356,3.77343 0.18884,0.0525 2.68805,0.0811 5.5538,0.0634 4.60851,-0.0284 5.27127,-0.072 5.73693,-0.37742 z m 66.791417,-2.61496 c 1.19531,-0.78454 2.71666,-1.88047 3.38077,-2.43538 1.92046,-1.6047 3.87485,-4.38771 5.03227,-7.16587 l 0.32708,-0.7851 -0.74614,0.70216 c -1.12345,1.05723 -2.16889,1.80554 -3.69025,2.64145 -0.75565,0.4152 -1.85969,1.18693 -2.45342,1.71497 -0.59373,0.52804 -1.93339,1.53117 -2.97702,2.22919 -1.04363,0.69801 -1.98135,1.37525 -2.08383,1.50497 -0.10247,0.12973 -0.24418,0.72164 -0.31489,1.31537 -0.0707,0.59373 -0.18206,1.4631 -0.24742,1.93193 l -0.11884,0.85243 0.85919,-0.53984 c 0.47256,-0.29691 1.83718,-1.18174 3.0325,-1.96628 z m -97.468237,-3.51206 c 0.27696,-0.33372 0.21672,-1.14968 -0.28291,-3.83204 -0.63192,-3.39258 0.01,-7.71172 1.65662,-11.14847 l 0.78063,-1.62918 -0.99754,0.54293 c -1.4178,0.77166 -2.6093,1.88099 -3.72176,3.46507 -0.53024,0.75504 -0.96408,1.25588 -0.96408,1.11297 0,-0.42435 1.33488,-2.72695 2.58679,-4.46207 0.94918,-1.31554 1.15595,-1.73758 1.10587,-2.25715 -0.0487,-0.50573 -0.20491,-0.71066 -0.74855,-0.98224 -1.40465,-0.7017 -4.74418,-0.27012 -7.36027,0.95122 -0.64771,0.30238 -1.26597,0.58844 -1.37392,0.63569 -0.10795,0.0472 0.0243,-0.15392 0.29394,-0.44702 0.72657,-0.78987 2.46809,-1.77768 4.02409,-2.28251 1.23471,-0.40059 1.71684,-0.44225 4.75848,-0.41112 3.16408,0.0324 3.41051,0.009 3.78277,-0.36357 0.55445,-0.55445 0.26045,-1.01249 -0.99712,-1.55349 -2.05155,-0.88255 -5.15063,-1.00429 -7.83808,-0.3079 -2.12473,0.55057 -1.68438,0.0989 0.96864,-0.99353 0.80289,-0.3306 1.4903,-0.69261 1.52758,-0.80446 0.0871,-0.26123 -1.95551,-1.16679 -3.01643,-1.3373 -1.1213,-0.18022 -2.27685,0.20824 -3.30088,1.10963 -1.05443,0.92815 -1.69676,2.00421 -2.3937,4.01008 -0.4857,1.39789 -0.539,1.81942 -0.5476,4.33044 -0.009,2.5276 0.0281,2.83251 0.40271,3.33666 0.72703,0.97854 1.07648,0.84464 2.6207,-1.00419 0.77152,-0.92372 1.48234,-1.67948 1.5796,-1.67948 0.0973,0 -0.12559,0.64034 -0.4952,1.42299 -1.05132,2.2261 -1.33105,3.61779 -1.2321,6.12983 0.0726,1.84397 0.1673,2.34476 0.64227,3.39766 0.63519,1.40807 1.44981,2.19988 2.26324,2.19988 0.73345,0 0.79943,-0.36512 0.35456,-1.96212 -0.51699,-1.85586 -0.45675,-1.85155 0.60612,0.0433 2.24612,4.00436 4.36938,5.9095 5.31553,4.76946 z m 101.867457,-7.08496 c 1.45981,-0.67949 3.92538,-3.23901 5.19892,-5.39701 1.12087,-1.89929 2.34086,-5.29923 2.67132,-7.44454 0.43019,-2.79284 -0.11095,-5.24709 -1.77629,-8.05604 -1.37465,-2.31864 -3.13453,-3.99933 -6.28757,-6.00465 l -0.88324,-0.56173 1.07951,-0.0981 1.07951,-0.0981 -0.0644,-0.68696 c -0.085,-0.90727 -1.68582,-4.28645 -2.10715,-4.44813 -0.24493,-0.094 -0.86217,0.44046 -2.38957,2.06902 -1.69139,1.80341 -8.92222,8.5428 -10.34432,9.64125 -0.3388,0.2617 -0.3624,0.2617 -0.21236,0 0.80033,-1.3959 3.36906,-4.91016 5.76356,-7.88507 1.59235,-1.97833 3.54811,-4.46593 4.34614,-5.528 l 1.45097,-1.93105 -0.24058,-1.40561 c -0.38611,-2.25583 -2.14206,-7.22693 -3.57839,-10.13042 -1.69302,-3.42239 -1.80516,-3.52217 -2.40922,-2.14347 -1.57302,3.5902 -5.64124,18.08144 -5.69599,20.28943 -0.0229,0.92384 0.006,0.98491 0.49795,1.04179 0.44891,0.0519 0.69709,-0.1656 1.76647,-1.54827 1.67489,-2.16561 1.92166,-2.46054 1.92677,-2.30276 0.002,0.0742 -0.60806,1.35851 -1.35657,2.85405 -2.28811,4.57168 -3.63025,8.19472 -4.62548,12.48625 -0.36467,1.57246 -0.22471,1.89508 0.82209,1.89508 0.94242,0 1.30979,-0.24683 1.71943,-1.15527 0.36048,-0.79939 1.23028,-1.3963 2.03467,-1.3963 0.28417,0 0.60173,-0.37189 1.1313,-1.32485 0.91557,-1.64756 3.2682,-4.01107 4.97756,-5.00057 1.33835,-0.77473 1.83098,-0.84129 0.87607,-0.11835 -0.9499,0.71913 -3.21942,3.024 -3.21942,3.26955 0,0.12656 0.19033,0.23011 0.42296,0.23011 0.55912,0 4.35964,-1.23357 6.39986,-2.07727 0.89186,-0.36881 1.70205,-0.67056 1.80044,-0.67056 0.0984,0 -0.0793,0.25817 -0.39485,0.57372 -0.31555,0.31555 -0.57372,0.67373 -0.57372,0.79596 0,0.12222 0.50786,0.44372 1.12857,0.71444 2.55333,1.11361 2.55915,1.02982 -0.0724,1.04371 -4.74248,0.025 -7.50487,0.86858 -8.58954,2.62299 -0.8592,1.38972 -0.77528,1.42184 3.57025,1.36625 4.2644,-0.0545 4.27972,0.19592 0.0307,0.50212 -2.88044,0.20758 -3.74179,0.14007 -5.72443,-0.44872 -1.01889,-0.30258 -1.33449,-0.26355 -1.33449,0.16503 0,0.34802 1.09678,0.82907 2.98865,1.31084 1.2135,0.30902 1.88415,0.61396 2.65423,1.20685 0.56674,0.43634 1.03044,0.83077 1.03044,0.8765 0,0.0457 -0.29902,0.0271 -0.66448,-0.0415 -0.86668,-0.16259 -1.04171,0.1441 -0.54015,0.94643 1.92513,3.07951 2.31753,4.36787 2.48239,8.1504 0.0626,1.43608 0.18801,2.80509 0.27873,3.04224 0.2484,0.64942 1.0297,1.25188 1.68203,1.29701 0.10795,0.007 0.68086,-0.21198 1.27313,-0.48767 z m -4.50837,-27.87076 c 1.02734,-1.07167 2.16924,-2.42243 2.53756,-3.00169 0.61362,-0.96504 0.69137,-1.02351 0.92902,-0.69851 0.30428,0.41613 0.35982,2.13138 0.0631,1.94798 -0.10795,-0.0667 -0.19627,-0.28745 -0.19627,-0.49052 0,-0.26948 -0.27836,-0.0739 -1.03044,0.72419 -0.56674,0.60137 -1.73703,1.62748 -2.60063,2.28023 l -1.5702,1.18683 z m -1.64993,25.4778 c 1.04065,-0.6885 1.61534,-4.80417 0.94538,-6.7704 -0.28152,-0.82621 -0.76926,-1.49322 -0.95193,-1.30179 -0.0404,0.0424 -0.21708,1.26939 -0.39255,2.72673 -0.17546,1.45733 -0.42474,3.16655 -0.55395,3.79825 -0.21626,1.05726 -0.2051,1.17035 0.14039,1.42299 0.42704,0.31225 0.50942,0.32484 0.81266,0.12422 z m -13.90029,-10.96688 c 0.27094,-0.0726 0.56887,-0.40277 0.75025,-0.83149 0.68387,-1.6164 2.03888,-5.80242 2.03888,-6.29868 0,-0.65963 -0.5541,-1.1885 -1.30102,-1.24179 -0.5123,-0.0366 -0.62472,0.0815 -1.23533,1.29791 -0.62384,1.24269 -0.67374,1.48068 -0.69965,3.33666 -0.0153,1.09919 -0.10043,2.41806 -0.18909,2.93083 -0.16709,0.96636 -0.13109,1.01203 0.63596,0.80656 z m -19.58611,-2.03327 c 0.49595,-0.49596 0.49438,-0.91008 -0.007,-1.73179 -0.58247,-0.95537 -0.86718,-0.70707 -0.93466,0.81514 -0.0641,1.44502 0.17758,1.68034 0.94127,0.91666 z m -48.675957,-0.72267 c 0.2,-0.62286 0.53627,-1.11032 1.04862,-1.5201 l 0.7542,-0.60321 21.5229,-0.0981 21.522887,-0.0981 0.0615,-0.63789 0.0615,-0.63789 -21.160956,0.001 c -13.57042,7.8e-4 -21.41566,0.0718 -21.87101,0.19832 -1.60472,0.44575 -2.9999,1.94663 -3.23558,3.48072 -0.12567,0.81797 -0.11719,0.83414 0.43668,0.83313 0.49935,-9.8e-4 0.59898,-0.10733 0.85925,-0.91791 z m 64.952657,-0.15331 c 1.42326,-0.73598 0.81028,-2.85323 -0.82606,-2.85323 -1.43224,0 -2.11854,1.75845 -1.04627,2.68076 0.61778,0.5314 1.09351,0.57522 1.87233,0.17247 z m -74.668807,-1.67653 c -0.2386,-0.38606 -2.52535,-1.82446 -3.90097,-2.45376 -0.76881,-0.3517 -2.0161,-0.78689 -2.77176,-0.96708 -2.00429,-0.47793 -2.05667,-0.50891 -1.37392,-0.81276 0.81332,-0.36195 2.95301,-0.34338 4.23301,0.0367 1.50834,0.44793 3.40977,1.44552 4.87409,2.55721 2.26485,1.71944 2.45639,1.83688 2.99616,1.83688 0.88511,0 1.14524,-0.61305 1.14524,-2.69897 0,-1.65289 -0.0582,-1.94262 -0.61197,-3.04764 -1.31278,-2.61953 -3.86938,-5.48453 -6.38308,-7.15305 -1.58287,-1.05067 -0.85977,-1.06563 1.14305,-0.0237 1.62922,0.84762 3.87677,2.51661 4.96877,3.68973 0.84815,0.91117 1.53289,1.22811 2.14798,0.99426 0.38891,-0.14787 0.50172,-0.32731 0.50172,-0.79807 0,-0.88368 -1.00853,-3.1668 -2.38603,-5.40155 -0.66108,-1.07247 -1.75453,-2.85154 -2.42989,-3.95348 -0.67536,-1.10194 -1.46561,-2.62552 -1.7561,-3.38573 -0.29049,-0.76021 -0.59686,-1.3822 -0.68081,-1.3822 -0.084,0 -0.37897,0.17803 -0.65559,0.39562 -0.62789,0.49389 -1.0034,1.59008 -0.85596,2.49867 0.0987,0.60813 0.009,0.81538 -0.73122,1.69615 -1.69012,2.0101 -2.77979,3.92143 -3.58491,6.28808 -0.77169,2.26837 -0.55545,2.91169 1.16226,3.4578 l 0.82876,0.26349 -1.29825,0.13972 c -2.24415,0.24151 -3.51046,1.26159 -3.51046,2.82785 0,0.83292 -0.0289,0.8715 -1.17177,1.56577 -1.06979,0.64987 -1.96861,1.5041 -1.96861,1.87095 0,0.0804 1.08196,0.19058 2.40435,0.24492 1.963,0.0807 2.74664,0.20889 4.26896,0.69844 1.02553,0.32979 2.35038,0.72958 2.94411,0.88841 1.28083,0.34266 2.6292,0.4126 2.45284,0.12724 z m -3.53234,-12.77055 c -1.14836,-0.55817 -1.49136,-1.00002 -0.86931,-1.11982 0.31107,-0.0599 2.33284,1.30196 2.33838,1.57513 0.005,0.22568 -0.19584,0.16357 -1.46907,-0.45531 z m 62.219527,11.39759 c 0.13991,0 0.38898,-0.56915 0.57748,-1.31959 0.18231,-0.72577 0.62582,-2.11686 0.98559,-3.09132 0.99822,-2.70379 0.98411,-2.54681 0.28746,-3.19789 l -0.61776,-0.57735 0.83591,-0.11212 c 0.66081,-0.0886 1.01481,-0.2988 1.68992,-1.00334 0.72041,-0.75182 1.00744,-0.91159 1.83495,-1.02136 0.75352,-0.1 0.98096,-0.20971 0.98096,-0.47336 0,-0.47207 0.42408,-0.78179 1.25512,-0.91665 0.38573,-0.0626 0.78112,-0.21289 0.87864,-0.33398 0.56449,-0.70096 2.55604,-7.79428 3.04412,-10.84226 0.24539,-1.5324 0.24007,-1.64504 -0.0776,-1.64504 -0.18802,0 -1.14404,0.92105 -2.13089,2.05294 -4.08891,4.68986 -7.6966,6.79436 -14.84398,8.65904 -3.8105,0.99412 -4.60152,1.31116 -5.7195,2.29238 -0.96712,0.84882 -0.61024,0.17817 0.65444,-1.2298 1.19606,-1.33158 3.2072,-2.64755 5.67994,-3.71659 3.69136,-1.5959 6.01005,-2.75961 7.22279,-3.625 1.96445,-1.4018 4.35145,-4.19287 3.93268,-4.59841 -0.0732,-0.0709 -0.3668,0.18016 -0.65236,0.55799 -1.69803,2.24671 -4.0028,4.1445 -6.60369,5.43758 -0.6477,0.32202 -2.70369,1.18567 -4.56886,1.91924 -1.86517,0.73356 -3.84818,1.653 -4.40669,2.04319 -1.19813,0.83705 -2.13552,2.00405 -2.61208,3.25189 -0.32728,0.85698 -0.32725,0.96884 5.9e-4,2.36096 0.34123,1.449 0.33033,1.60996 -0.1974,2.91559 -0.14035,0.34723 0.0626,0.35918 5.00083,0.29441 l 5.14712,-0.0675 0.47477,0.5507 c 0.44986,0.52181 0.47476,0.68525 0.47476,3.11585 v 2.56515 l 0.61336,-0.12267 c 0.33735,-0.0675 0.72406,-0.12267 0.85937,-0.12267 z m 10.86878,-1.46123 c 1.76443,-0.55127 2.55778,-0.69779 3.77827,-0.69779 0.84969,0 1.54489,-0.0831 1.54489,-0.18457 0,-0.36935 -1.05028,-3.09783 -1.8696,-4.85698 -1.01211,-2.17308 -0.74602,-2.07752 -5.53772,-1.98872 -2.7557,0.0511 -3.43156,0.11943 -3.68439,0.37268 -0.17029,0.17057 -0.70388,1.27461 -1.18576,2.45342 -0.98628,2.41271 -0.6184,2.1875 0.74561,-0.45645 0.67012,-1.29892 0.92209,-1.61855 1.27654,-1.61926 0.5521,-0.001 0.5508,0.0174 -0.0649,0.9227 l -0.50651,0.74474 1.2909,0.11379 c 1.94249,0.17122 1.90391,0.39065 -0.11686,0.66476 -1.55656,0.21115 -2.5163,1.29912 -2.5163,2.85252 0,1.00186 0.42957,1.85949 1.13104,2.2581 0.83584,0.47496 3.06408,0.24923 5.71479,-0.57894 z m 1.12715,-2.94604 c -0.64102,-0.97831 -1.46515,-3.3348 -1.25584,-3.5909 0.26885,-0.32897 0.63992,-0.30954 0.93754,0.0491 0.20277,0.24432 0.1802,0.29441 -0.13262,0.29441 -0.3402,0 -0.30442,0.14833 0.36694,1.52112 0.73136,1.49546 0.9164,2.20809 0.57335,2.20809 -0.0955,0 -0.31575,-0.21681 -0.48937,-0.48179 z m -38.092117,2.74786 c 0.57328,-0.57329 0.6018,-0.8967 0.1304,-1.47886 -0.44462,-0.54907 -1.65557,-0.59314 -2.22165,-0.0808 -0.54788,0.49582 -0.4302,1.4627 0.21772,1.78875 0.74632,0.37557 1.3417,0.30278 1.87353,-0.22905 z m -5.39356,0.0823 c 0.57897,-0.30985 0.50265,-1.27737 -0.13365,-1.69429 -0.45975,-0.30124 -0.56727,-0.30618 -1.03044,-0.0474 -0.6463,0.36109 -0.81541,1.31312 -0.30019,1.68986 0.42055,0.30751 0.95144,0.3263 1.46428,0.0518 z m 49.934697,-0.92148 0.53249,-1.12465 -0.69646,-2.26107 c -1.25387,-4.07064 -2.44107,-9.15196 -2.08717,-8.93323 0.0823,0.0509 0.56511,1.39629 1.07282,2.98979 1.70648,5.35596 2.07101,6.13579 2.86821,6.13579 0.50458,0 0.73625,-0.55762 1.9571,-4.71058 1.14224,-3.88556 2.69427,-8.37969 5.27994,-15.28885 0.97578,-2.60738 1.77414,-4.87413 1.77414,-5.03721 0,-0.76215 -1.66007,-2.75752 -3.40347,-4.09091 -1.48084,-1.13258 -4.11613,-2.53891 -5.17201,-2.76006 -0.92935,-0.19465 -1.30173,0.11461 -2.16981,1.80196 -1.27752,2.48323 -1.99297,4.90128 -2.88241,9.7419 -0.53154,2.89283 -0.87407,4.33721 -0.99893,4.21235 -0.0421,-0.0421 0.0424,-0.77969 0.18784,-1.63907 0.49028,-2.89741 0.53885,-3.42712 0.31423,-3.42712 -0.32403,0 -0.53569,0.71622 -1.19503,4.04392 -0.64662,3.26352 -1.83391,7.55419 -2.63778,9.53254 -0.60561,1.49041 -0.60561,1.49346 0.003,1.77077 0.27246,0.12414 0.54701,0.43138 0.6101,0.68275 0.0817,0.32548 0.25541,0.45703 0.60352,0.45703 0.76245,0 1.68633,0.53182 2.13483,1.22887 0.54268,0.84344 2.54608,5.68781 2.84003,6.86744 0.12777,0.51276 0.29982,0.9323 0.38231,0.9323 0.0825,0 0.38963,-0.5061 0.6825,-1.12466 z m -25.67587,0.53584 h 3.20663 v -0.56783 c 0,-0.3123 -0.1104,-0.60174 -0.24534,-0.64319 -0.13494,-0.0415 -4.28614,-0.0432 -9.22488,-0.004 l -8.979527,0.0714 v 0.5599 c 0,0.49976 0.0791,0.5698 0.736016,0.65207 0.404821,0.0507 3.113031,0.056 6.018251,0.0119 2.90522,-0.0442 6.7252,-0.0803 8.48885,-0.0803 z m -62.367117,-2.4962 c 0.044,-0.0284 -0.0197,-0.73697 -0.14146,-1.57462 -0.12175,-0.83765 -0.48666,-3.33362 -0.81091,-5.54661 -1.73192,-11.82031 -2.90772,-25.41877 -2.69665,-31.18749 0.13409,-3.66467 0.46269,-5.27741 1.5107,-7.41439 1.58617,-3.23431 3.68952,-4.79628 14.2274,-10.56542 1.94311,-1.063785 5.13059,-2.702999 7.08327,-3.642696 l 3.55034,-1.708538 0.25742,-1.213007 c 0.14158,-0.667155 0.50782,-1.74248 0.81386,-2.389611 l 0.55645,-1.176602 -2.69588,1.41577 c -10.53353,5.531817 -16.54163,8.822564 -19.78322,10.835644 -4.60936,2.86249 -6.8924,5.71244 -8.09091,10.09997 -0.50986,1.86651 -0.5219,2.04298 -0.51213,7.50527 0.0105,5.86015 0.34714,10.71588 1.36765,19.72553 0.74429,6.57103 2.05327,15.32135 2.73919,18.31098 0.0998,0.43506 0.14391,0.41886 1.32411,-0.48625 0.67148,-0.51496 1.25682,-0.95953 1.30077,-0.98793 z m 22.10704,-0.79139 c -0.20701,-0.84196 -0.62405,-1.36264 -1.20902,-1.50946 -0.7898,-0.19823 -1.52971,0.4151 -1.60772,1.33268 l -0.0609,0.71653 h 1.50518 1.50519 z m 5.65948,-0.19628 c -0.41116,-1.70578 -1.59807,-3.18945 -2.55151,-3.18945 -0.53639,0 -1.4497,0.85604 -1.44405,1.35351 0.002,0.17315 0.26693,0.70348 0.58882,1.17852 0.32189,0.47503 0.58525,0.93873 0.58525,1.03044 0,0.0917 0.66411,0.16674 1.47579,0.16674 h 1.4758 z m 4.8643,-0.24534 c -0.16313,-1.67178 -1.45691,-3.53293 -2.45591,-3.53293 -0.5018,0 -1.3044,0.51091 -1.3044,0.83034 0,0.12059 0.37538,0.95735 0.83417,1.85948 l 0.83416,1.64022 1.07951,-0.0551 1.0795,-0.0551 z m 19.792567,-0.34888 c 0,-0.0839 -0.12038,-0.32682 -0.26751,-0.53975 -0.14713,-0.21293 -0.55228,-1.26692 -0.90035,-2.3422 -1.07514,-3.32144 -1.80754,-4.48678 -4.475167,-7.12063 -1.80161,-1.77879 -2.74875,-2.47137 -4.21974,-3.08564 -1.20744,-0.50421 -0.84221,-0.0524 0.93189,1.15264 0.91735,0.62313 1.71553,1.21002 1.77373,1.3042 0.11841,0.19159 -0.92639,-0.22011 -2.264,-0.89211 -0.48578,-0.24405 -2.6497,-1.1291 -4.80871,-1.96677 -7.09017,-2.7509 -10.91128,-4.96797 -13.97618,-8.10923 -1.69314,-1.73532 -2.13263,-2.54649 -2.4866,-4.58956 -0.16288,-0.9401 -0.39263,-1.88957 -0.51057,-2.10995 -0.90431,-1.68971 -4.25077,2.23877 -5.18681,6.08891 -0.4235,1.74191 -0.40033,4.61563 0.0524,6.50759 0.19943,0.83333 0.29285,1.47204 0.2076,1.41935 -0.24866,-0.15368 -1.29685,-3.03012 -1.54272,-4.23353 -0.12392,-0.60652 -0.34895,-1.26895 -0.50008,-1.47206 -0.25262,-0.33952 -0.31918,-0.34551 -0.8256,-0.0743 -0.77756,0.41637 -1.63035,2.17492 -1.63035,3.36198 0,1.15016 0.73653,2.61092 3.47415,6.89033 1.05401,1.6476 2.43126,4.01136 3.06055,5.25279 l 1.14418,2.25715 h 1.01834 c 0.56009,0 1.20677,0.0689 1.43706,0.15316 0.34518,0.12627 0.48925,0.0336 0.82036,-0.52757 0.75636,-1.28194 2.38975,-1.70858 3.91246,-1.02193 l 0.80216,0.36172 0.73672,-0.5622 c 0.6338,-0.48366 0.9034,-0.55964 1.93,-0.5439 0.65631,0.0101 1.41852,0.0832 1.69381,0.16259 0.44894,0.12942 0.58486,0.0241 1.31875,-1.02216 0.92914,-1.32458 1.43494,-1.71259 2.63624,-2.02228 1.14967,-0.29639 2.18396,0.0734 2.98389,1.06688 0.55333,0.68719 0.60763,0.88079 0.60558,2.15901 -0.002,1.17217 -0.10726,1.62664 -0.63789,2.75102 -0.3496,0.74078 -0.63564,1.38113 -0.63564,1.42298 0,0.0419 3.2238,0.0761 7.164,0.0761 3.940197,0 7.163997,-0.0687 7.163997,-0.15261 z m -16.087807,-0.44095 c 0.71567,-0.5096 1.54043,-2.19557 1.68941,-3.45347 0.10133,-0.85562 0.0538,-1.05355 -0.37226,-1.54884 -0.3919,-0.4556 -0.63892,-0.56365 -1.24961,-0.54659 -0.62859,0.0176 -0.88333,0.15881 -1.46266,0.81105 -0.38583,0.43439 -0.91102,1.18472 -1.16708,1.6674 l -0.46557,0.87761 0.37479,0.83115 c 0.80656,1.78863 1.53112,2.16052 2.65298,1.36169 z m 19.380797,-0.30081 c 0.52535,-0.36797 0.53475,-0.62233 0.0793,-2.14788 -0.34062,-1.14102 -0.37564,-1.18136 -1.12591,-1.297 l -0.77434,-0.11935 0.70652,-0.0279 0.70652,-0.0279 0.13025,-2.14467 c 0.11418,-1.87987 0.0808,-2.27683 -0.27024,-3.2151 -0.72999,-1.95106 -2.47287,-3.23137 -8.535187,-6.26988 -4.06149,-2.03568 -5.31275,-3.15067 -7.93824,-7.07377 -3.63362,-5.42949 -7.20711,-15.45751 -7.77812,-21.82716 -0.25076,-2.79729 0.8515,-5.55634 3.11842,-7.80565 1.08077,-1.07237 1.76227,-1.53592 3.53368,-2.40359 3.87652,-1.898778 7.82188,-2.638898 14.069247,-2.639284 4.20826,-1.97e-4 6.82617,0.288128 9.79946,1.079501 6.51087,1.732933 10.4746,4.672043 13.836,10.259403 0.4097,0.68102 0.7884,1.19474 0.84154,1.1416 0.17855,-0.17854 -1.94098,-3.9991 -2.99825,-5.40452 -0.57573,-0.7653 -0.96492,-1.39146 -0.86487,-1.39146 0.28825,0 2.46239,2.72329 3.258,4.0809 l 0.72372,1.23493 0.78087,-2.35289 0.78087,-2.35289 -1.02362,-1.38078 c -3.29832,-4.4492 -8.66538,-7.274515 -16.98835,-8.942982 -3.58634,-0.718936 -6.09177,-0.94273 -10.50066,-0.937952 -5.686047,0.0062 -9.380427,0.543251 -14.087307,2.048011 -1.33844,0.427891 -2.58048,0.823666 -2.7601,0.879496 -0.68996,0.214467 0.47652,-0.560825 2.02325,-1.344738 5.8548,-2.967333 13.975357,-4.052717 22.282567,-2.978262 5.15716,0.667029 11.19379,2.35359 14.69185,4.104724 2.73452,1.368905 5.2307,3.965708 6.46751,6.728213 l 0.35772,0.79898 0.62535,-1.26815 c 0.69699,-1.41342 0.75552,-2.091065 0.34622,-4.008561 -1.04487,-4.895008 -4.65215,-10.989656 -8.29343,-14.012066 -2.6959,-2.237708 -6.18942,-3.715744 -10.78041,-4.560976 -2.6922,-0.495651 -9.37392,-0.496742 -12.05087,-0.002 -10.205217,1.886215 -17.470477,8.630404 -18.475277,17.15023 -0.18279,1.549923 -0.29515,1.908991 -0.74963,2.395513 -1.86512,1.9966 -2.05135,8.26709 -0.46949,15.80743 1.40604,6.70223 4.90117,14.35575 9.15676,20.05114 2.49846,3.34378 3.64363,4.21321 9.51767,7.22593 6.586517,3.37815 6.909877,3.83231 6.434027,9.03689 -0.19164,2.09594 0.0445,3.22269 0.79977,3.81682 0.61457,0.48341 0.82526,0.49812 1.39719,0.0975 z M 80.228893,106.3344 c 0,-0.55823 1.08383,-2.26588 2.0537,-3.23575 3.54336,-3.543345 10.21308,-6.135965 17.485736,-6.796957 1.478921,-0.134417 3.361931,-0.17383 4.504121,-0.09428 3.71976,0.25908 3.47809,0.398523 -0.70865,0.408882 -4.804127,0.01189 -7.221767,0.359498 -11.038277,1.587098 -4.75305,1.528832 -9.33109,4.408197 -11.41366,7.178647 -0.48564,0.64602 -0.88297,1.07459 -0.88297,0.95236 z M 118.20791,82.363895 c -4.06452,-1.784299 -7.07418,-2.346805 -13.34663,-2.494485 -5.033611,-0.118513 -5.376787,-0.337299 -0.88324,-0.563079 3.84805,-0.193346 8.64905,0.411163 11.97272,1.507524 1.53536,0.506459 3.76352,1.646723 4.23426,2.166889 0.18748,0.207169 0.30511,0.366382 0.26139,0.353807 -0.0437,-0.01258 -1.05104,-0.449369 -2.2385,-0.970656 z m 13.15036,68.719305 c 0.72963,-0.15092 0.69232,-0.16398 -0.52817,-0.18496 -0.7223,-0.0124 -1.36785,0.0658 -1.43457,0.1737 -0.14569,0.23573 0.84991,0.24144 1.96274,0.0113 z m 33.62728,-3.78953 c 1.38394,-11.05264 2.2438,-24.92042 1.8165,-29.29652 -0.74536,-7.63339 -3.32673,-11.26287 -11.1058,-15.61508 -2.8899,-1.61684 -13.61824,-6.943893 -13.73978,-6.82236 -0.0437,0.04375 1.02406,0.910729 2.37291,1.926614 2.39595,1.804511 3.04468,2.507071 3.29369,3.567016 0.10324,0.43942 0.78218,0.88585 4.29418,2.82352 5.42638,2.99391 6.66522,3.80519 8.14303,5.33261 1.39672,1.44361 2.37514,3.26048 3.04261,5.64992 0.4102,1.46845 0.43855,1.95808 0.43757,7.55655 -9.8e-4,6.06725 -0.15486,8.87357 -0.96542,17.61447 l -0.45044,4.85745 1.05479,2.67921 c 0.58013,1.47357 1.05478,2.77666 1.05478,2.89577 0,0.1191 0.0737,0.21655 0.16372,0.21655 0.09,0 0.35449,-1.52357 0.58766,-3.38572 z m -74.956697,-7.9425 c -4.34149,-3.64215 -6.50955,-6.54268 -9.79778,-13.10789 -0.98636,-1.96936 -1.43249,-2.65392 -1.9552,-3.00012 -2.09689,-1.3889 -4.09785,1.60114 -3.26226,4.87481 1.05553,4.13538 5.62368,7.97038 13.06624,10.96918 1.34938,0.54371 2.53557,0.98966 2.63596,0.991 0.10039,0.001 -0.20874,-0.3258 -0.68696,-0.72698 z m 19.346727,-1.07096 c 1.12781,-0.28592 2.65987,-0.96848 2.55493,-1.13827 -0.0492,-0.0796 -0.77395,-0.3944 -1.61054,-0.69952 -1.92253,-0.70119 -3.03328,-1.67943 -3.58684,-3.15895 -0.50833,-1.35862 -0.50579,-2.28114 0.009,-3.34494 0.4751,-0.98144 1.89845,-2.31463 3.02581,-2.83415 1.4703,-0.67756 2.21237,-0.52117 6.92496,1.45946 1.43381,0.60261 2.83681,1.27648 3.11778,1.49749 0.65034,0.51156 1.48398,0.51023 2.54634,-0.004 0.97204,-0.47056 2.03333,-1.59405 2.03333,-2.15251 0,-0.49372 -0.28018,-0.48718 -1.11039,0.0259 -0.36632,0.22639 -0.80912,0.35673 -0.984,0.28962 -0.24939,-0.0957 -0.0222,-0.4278 1.05367,-1.54021 1.48676,-1.53726 1.91545,-2.17729 1.74895,-2.61118 -0.15575,-0.40589 -0.55761,-0.34411 -1.37651,0.21161 -0.39769,0.26988 -0.80747,0.49068 -0.91063,0.49068 -0.24887,0 -0.24168,-0.72847 0.009,-0.88323 0.45825,-0.28321 0.15506,-0.50179 -0.53976,-0.38911 l -0.73602,0.11935 0.78509,-0.64322 c 1.84312,-1.51007 2.72559,-2.7399 2.96018,-4.1254 l 0.11066,-0.65357 -0.64676,0.7851 c -1.63607,1.986 -3.27294,2.98847 -5.6273,3.44632 -2.51057,0.48823 -7.49817,-0.10919 -9.23929,-1.1067 -0.39167,-0.22439 -0.41477,-0.26743 -0.0986,-0.18364 1.18371,0.3137 3.92592,0.71392 5.57337,0.81343 2.96418,0.17903 5.84534,-0.61004 7.48541,-2.05004 0.91264,-0.80131 1.84845,-2.59187 2.11496,-4.04673 0.30962,-1.69022 0.2373,-1.96086 -0.15648,-0.58557 -0.86384,3.01699 -2.71475,4.1268 -6.79419,4.07379 -2.6104,-0.0339 -3.98981,-0.37101 -8.16961,-1.99638 -5.79169,-2.25219 -6.26759,-2.28874 -9.58116,-0.73579 -1.248037,0.58491 -2.811857,1.20318 -3.475147,1.37392 -1.53735,0.39573 -3.633,0.39686 -4.96039,0.003 -0.57,-0.16928 -1.07981,-0.26431 -1.13293,-0.2112 -0.0531,0.0531 0.26455,0.48834 0.70591,0.96716 0.81177,0.88066 2.42963,1.85434 3.81996,2.29896 0.55117,0.17626 0.68577,0.28961 0.49069,0.41319 -0.14785,0.0937 -0.46478,0.17165 -0.70428,0.1733 -0.30583,0.002 -0.40183,0.0906 -0.32248,0.29742 0.077,0.20065 -0.0109,0.29441 -0.2759,0.29441 -0.21388,0 -0.76437,-0.13249 -1.22332,-0.29441 -1.0439,-0.36831 -1.10784,-0.36687 -1.25951,0.0284 -0.16809,0.43803 0.25155,0.85861 2.06719,2.07184 1.873,1.25155 2.12128,1.6444 0.91368,1.44567 -1.50721,-0.24802 -1.6196,-0.23456 -1.68189,0.20151 -0.0467,0.3269 0.34389,0.68045 1.91367,1.7322 1.84631,1.23701 2.31233,1.69037 1.727,1.68009 -0.13494,-0.002 -0.63036,-0.17902 -1.10094,-0.39255 -1.07775,-0.48904 -1.40155,-0.48944 -1.40155,-0.002 0,0.42001 0.69378,0.90511 4.08526,2.85648 1.11342,0.64063 1.936227,1.19417 1.828467,1.23008 -0.10776,0.0359 -0.951517,-0.19821 -1.875037,-0.52028 -1.63137,-0.56894 -2.04772,-0.55206 -1.80774,0.0733 0.1184,0.30855 1.70105,1.13381 4.879027,2.54413 2.40133,1.06566 2.93121,1.47832 1.89358,1.47466 -0.36405,-0.001 -1.14692,-0.13139 -1.7397,-0.28913 -0.93207,-0.24803 -1.11553,-0.24905 -1.35705,-0.008 -0.392051,0.39205 -0.049,0.75526 1.29415,1.37017 2.59878,1.18976 5.32406,1.48888 7.814,0.85763 z m -5.88822,-13.5348 c -0.4318,-0.44552 -1.2493,-1.0723 -1.81666,-1.39285 -1.25528,-0.70921 -1.38046,-1.09462 -0.8478,-2.61012 0.42929,-1.22142 0.94331,-1.96967 0.73803,-1.07434 -0.0619,0.26988 -0.17063,0.93667 -0.24168,1.48176 l -0.12917,0.99107 1.04423,0.67726 c 1.04375,0.67694 2.24638,2.11382 2.11027,2.52131 -0.0397,0.11877 -0.42542,-0.14858 -0.85722,-0.59409 z m -4.289857,-6.60193 c -0.0567,-0.0917 0.598336,-0.48525 1.455537,-0.87463 0.85719,-0.38939 1.55854,-0.63161 1.55854,-0.53827 0,0.24862 -1.19657,1.10346 -1.76647,1.26198 -0.26988,0.0751 -0.637811,0.17724 -0.817637,0.22704 -0.17983,0.0498 -0.37332,0.0155 -0.42997,-0.0761 z m 16.882457,17.34774 c 0.49191,-0.42312 0.52097,-0.51739 0.30536,-0.9906 -0.34787,-0.76349 -0.29217,-1.68975 0.15426,-2.56539 0.2159,-0.42348 0.39255,-0.7891 0.39255,-0.8125 0,-0.0234 -0.50786,-0.23051 -1.12858,-0.46025 -0.62071,-0.22975 -2.1696,-0.86236 -3.44196,-1.4058 l -2.31339,-0.98806 -0.87911,0.72036 c -0.48351,0.3962 -1.01341,0.98007 -1.17755,1.29749 l -0.29845,0.57713 0.84125,0.36347 c 2.21097,0.9553 5.45368,2.59797 5.45368,2.7627 0,0.1014 -0.99364,-0.17316 -2.20808,-0.61013 -3.70023,-1.33137 -3.89425,-1.39387 -3.99966,-1.28845 -0.15799,0.15798 0.4872,1.29491 0.87079,1.53447 0.5586,0.34885 5.98661,2.29595 6.45458,2.31534 0.23687,0.01 0.67531,-0.19259 0.97431,-0.44978 z m -1.89567,-3.97396 c -0.59373,-0.28174 -1.87441,-0.84935 -2.84597,-1.26135 -1.8539,-0.78618 -2.28299,-1.28057 -1.07951,-1.24381 0.92866,0.0284 5.69195,2.29858 5.69195,2.71282 0,0.44151 -0.52967,0.37925 -1.76647,-0.20766 z m 10.34367,1.97381 c 5.03868,-1.04076 9.71431,-4.27942 12.78576,-8.85628 0.92582,-1.37959 0.94452,-1.43608 0.47252,-1.42754 -0.20133,0.004 -0.70899,0.55047 -1.22671,1.32138 -2.12868,3.16968 -5.7023,5.89126 -9.6066,7.31615 -2.32743,0.84941 -4.61674,1.20622 -7.27296,1.13356 -1.89652,-0.0519 -2.25716,-0.015 -2.25716,0.23074 0,0.16615 0.25433,0.34687 0.58883,0.41839 1.18345,0.25307 5.01954,0.17277 6.51632,-0.1364 z m 5.55453,-0.89205 c 0,-0.10795 -0.0883,-0.14169 -0.19628,-0.075 -0.10795,0.0667 -0.19627,0.20962 -0.19627,0.31758 0,0.10795 0.0883,0.14168 0.19627,0.075 0.10796,-0.0667 0.19628,-0.20963 0.19628,-0.31758 z m 1.1546,-4.34393 c 0.19359,-0.52284 0.48475,-2.63708 0.34374,-2.49607 -0.22578,0.22578 -0.86818,2.93768 -0.69588,2.93768 0.10374,0 0.26221,-0.19872 0.35214,-0.44161 z m 3.85982,-3.69508 c 0.80765,-1.27941 0.80939,-1.35898 0.0297,-1.35898 h -0.68979 l -0.0672,1.07978 c -0.037,0.59387 -0.002,1.07965 0.0775,1.0795 0.0796,-1.4e-4 0.37201,-0.36028 0.64979,-0.8003 z m 4.46122,-3.37079 c 0.29391,-0.67469 0.53437,-1.32607 0.53436,-1.44752 -2e-5,-0.20043 -0.84508,-0.46615 -1.48251,-0.46615 -0.14068,0 -0.43072,0.46757 -0.64453,1.03903 -0.589,1.57424 -0.59211,1.76096 -0.032,1.92154 0.96659,0.27713 1.07963,0.20429 1.62468,-1.0469 z m -5.28695,-4.31803 c -0.20945,-4.15605 0.50502,-8.29069 2.05315,-11.8816 1.46277,-3.39293 3.5091,-5.853295 5.31398,-6.389146 l 0.85889,-0.254999 -1.51084,-0.746518 c -1.23968,-0.61254 -1.65279,-0.72748 -2.3018,-0.640429 -1.05698,0.141771 -2.68262,1.422728 -4.03612,3.180332 -1.29122,1.67676 -3.03909,5.21607 -3.47293,7.03244 -0.76168,3.18899 -0.76808,7.14594 -0.0162,10.01039 0.47782,1.82032 0.52621,1.86948 1.91826,1.94862 0.67364,0.0383 1.24504,0.0866 1.26978,0.10745 0.0247,0.0208 -0.01,-1.04414 -0.0762,-2.36654 z m -2.89622,-4.36709 c 0.20574,-3.60181 0.97298,-6.2375 2.59519,-8.91525 0.76905,-1.26945 2.37574,-3.2384 2.52268,-3.09146 0.0482,0.0482 -0.30328,0.6938 -0.78101,1.43471 -1.88837,2.92868 -2.99988,5.77393 -3.77717,9.66883 -0.27148,1.36035 -0.5337,2.56168 -0.5827,2.66963 -0.049,0.10795 -0.0386,-0.68696 0.023,-1.76646 z m 10.8699,6.05994 c 0.74468,-0.62661 2.12907,-3.45107 2.83956,-5.79331 0.76075,-2.50796 1.09254,-4.49497 1.09254,-6.54292 0,-1.54387 -0.0609,-1.8971 -0.3944,-2.28896 l -0.39439,-0.46336 -0.56456,0.6527 c -1.09636,1.26752 -3.35521,7.9407 -3.35862,9.9222 -0.002,1.44142 -0.24718,3.4587 -0.41954,3.4587 -0.0923,0 -0.17102,-0.50786 -0.17485,-1.12858 -0.007,-1.07771 -0.0196,-1.10646 -0.28745,-0.63789 -0.39759,0.69551 -0.3789,2.52544 0.0304,2.97772 0.44728,0.49424 0.91097,0.44981 1.63129,-0.1563 z m 0.30373,-2.42887 c 0.24665,-1.19166 2.06628,-7.50839 2.25669,-7.83399 0.16087,-0.27509 0.18279,-0.27095 0.18807,0.0355 0.0125,0.72877 -0.84288,4.21486 -1.4998,6.11211 -0.71452,2.06365 -1.20378,2.93675 -0.94496,1.68636 z m -5.98338,1.61926 c 0.12638,-0.62072 0.48126,-1.70683 0.78862,-2.41359 0.30737,-0.70676 0.73283,-2.08219 0.94548,-3.05651 0.46477,-2.12951 1.52236,-4.93717 2.61576,-6.94423 1.51159,-2.77473 2.1938,-3.41714 1.12427,-1.05869 -1.0817,2.38532 -1.94652,4.75538 -2.3405,6.41426 -0.4483,1.8876 -0.77784,4.6544 -0.55435,4.6544 0.29693,0 0.95048,-1.5657 1.32799,-3.18145 1.05615,-4.52038 3.13865,-9.37329 4.74726,-11.06272 0.64909,-0.68168 0.60945,-0.75889 -0.83241,-1.621645 -1.47079,-0.880072 -2.67679,-0.4257 -4.35399,1.640395 -1.83098,2.25554 -3.27661,5.80082 -3.96852,9.73245 -0.45464,2.58341 -0.322,8.0259 0.19561,8.0259 0.0412,0 0.1784,-0.50786 0.30478,-1.12857 z m 1.56451,-7.44755 c 0,-0.40432 0.82889,-2.90505 1.21345,-3.66096 0.68783,-1.35199 0.61937,-0.58311 -0.13205,1.4831 -0.68949,1.89591 -1.0814,2.68519 -1.0814,2.17786 z m -19.4564,6.2485 c 0.52817,-0.20069 1.27927,-0.60817 1.66911,-0.90552 0.98232,-0.74925 1.84708,-2.59888 1.97543,-4.22527 l 0.10069,-1.27578 -0.29615,0.98137 c -0.85527,2.83415 -2.46362,4.69327 -4.77462,5.51911 -0.66335,0.23705 -0.6747,0.25431 -0.17241,0.26236 0.2957,0.005 0.96978,-0.15559 1.49795,-0.35627 z m -40.623737,-0.56742 c -0.21206,-0.89074 -0.55595,-7.61163 -0.56993,-11.13855 -0.007,-1.82695 -0.144,-3.2677 -0.48157,-5.073285 -0.25929,-1.38695 -0.51786,-2.568145 -0.57459,-2.624876 -0.42477,-0.424764 -1.36059,0.903832 -2.42154,3.437851 -0.6175,1.47489 -0.7135,1.9113 -0.70148,3.18875 0.0221,2.35248 0.82871,5.67504 2.02482,8.34094 0.5357,1.19398 2.62283,4.6052 2.81765,4.6052 0.045,0 0.003,-0.33121 -0.0934,-0.73603 z m -2.28399,-4.90088 c -1.70426,-4.04801 -2.27596,-8.63339 -1.3554,-10.87122 0.5399,-1.312455 1.23384,-2.334167 1.58535,-2.334167 0.22905,0 0.49595,0.979525 0.76615,2.811777 0.11822,0.80162 -0.16039,0.39496 -0.54807,-0.799975 -0.18387,-0.56674 -0.37626,-1.030432 -0.42753,-1.030432 -0.0513,0 -0.32361,0.503232 -0.60519,1.118292 -0.44661,0.975505 -0.50879,1.357685 -0.48703,2.993175 0.0284,2.13317 0.41884,4.58642 1.13589,7.13674 0.27097,0.96375 0.45626,1.78868 0.41176,1.83318 -0.0445,0.0445 -0.25867,-0.34132 -0.47593,-0.85737 z m 17.85181,4.75745 c -1.97219,-0.91815 -3.5794,-3.03936 -4.0925,-5.40131 l -0.23451,-1.07951 -0.0165,1.21935 c -0.0237,1.75619 0.55335,3.16361 1.72975,4.21895 0.95672,0.85827 2.27738,1.4905 3.16065,1.51306 0.36264,0.009 0.21992,-0.11352 -0.54694,-0.47054 z m 15.203297,-0.87528 c -0.38428,-0.42536 -0.83844,-1.04362 -1.00925,-1.37392 -0.30581,-0.59136 -0.74715,-0.74704 -1.2368,-0.43627 -0.41123,0.26101 0.52558,1.43335 1.62953,2.03922 1.32047,0.7247 1.43854,0.68084 0.61652,-0.22903 z m -3.97548,-1.11223 c 0.41178,-0.15802 0.39578,-0.59123 -0.0278,-0.75378 -0.3187,-0.1223 -0.83935,0.32069 -0.83935,0.71415 0,0.18766 0.43019,0.20732 0.86718,0.0396 z m 2.95096,-5.84727 -0.12513,-0.667 2.42246,0.0994 c 2.5191,0.10333 4.18143,-0.13897 5.80716,-0.84646 l 0.73705,-0.32075 -0.58882,-0.18091 c -2.3133,-0.71073 -9.77659,-1.73527 -12.64059,-1.73527 -0.85008,0 -6.416527,1.45766 -6.759777,1.77016 -0.27219,0.2478 1.98194,0.98235 3.682587,1.20003 0.87233,0.11166 2.18223,0.14612 2.9109,0.0766 l 1.32485,-0.12643 v 0.61229 c 0,0.83369 0.32821,0.58741 0.88351,-0.66296 l 0.44636,-1.00507 0.49483,1.11258 c 0.36171,0.81326 0.61845,1.1361 0.95433,1.19998 0.25272,0.0481 0.48557,0.0994 0.51745,0.11414 0.0319,0.0147 0.002,-0.27343 -0.0672,-0.64028 z M 79.330323,97.405769 c 0.93833,-1.214337 0.97058,-1.319422 0.77259,-2.517255 l -0.12166,-0.736028 h -1.26572 -1.26572 l 0.1262,1.32485 c 0.18454,1.937319 0.50666,3.452249 0.69307,3.259505 0.0895,-0.0925 0.56702,-0.691487 1.06124,-1.331072 z m 59.754937,-1.486817 c 0.28888,0 -1.04359,-3.729312 -1.73516,-4.856386 l -0.39055,-0.636495 -0.67793,0.323277 -0.67791,0.323277 0.64659,1.294588 c 0.35563,0.712023 0.84036,1.883257 1.07718,2.602741 l 0.43059,1.308152 0.62615,-0.179577 c 0.34438,-0.09877 0.65985,-0.179577 0.70104,-0.179577 z M 79.940443,92.118255 c 0.10554,-0.471882 1.43133,-2.943973 2.18577,-4.07562 l 1.01409,-1.521112 -0.49019,-0.321187 c -0.64179,-0.420515 -0.89003,-0.301781 -1.73048,0.827664 -0.74788,1.005051 -2.65348,4.688127 -2.65348,5.128552 0,0.201324 0.19797,0.231266 0.83416,0.126161 0.45879,-0.0758 0.83685,-0.149802 0.84013,-0.164458 z m 55.397977,-1.864277 c 0.61763,-0.309018 1.45419,-0.669161 1.859,-0.800317 0.40482,-0.131159 0.73603,-0.278717 0.73603,-0.32791 0,-0.04919 -0.22156,-0.526671 -0.49236,-1.061069 l -0.49236,-0.971627 -1.02877,0.460481 c -1.91819,0.858596 -2.89336,1.377241 -2.89336,1.538837 0,0.209497 0.95536,1.723455 1.08756,1.723455 0.0557,0 0.60662,-0.252833 1.22426,-0.56185 z m -1.72215,-2.703867 1.42751,-0.714153 -0.86138,-0.288492 c -0.95469,-0.319738 -1.56911,-0.759698 -4.41455,-3.161105 -4.14816,-3.500837 -7.95179,-5.606789 -12.50323,-6.922657 -4.09777,-1.184708 -9.42012,-1.692995 -14.06663,-1.34337 -1.5387,0.11578 -2.83397,0.174177 -2.87838,0.129772 -0.11983,-0.119835 2.71978,-0.553946 4.70674,-0.719556 2.29509,-0.191291 6.48296,0.07823 8.91423,0.573688 3.87191,0.789047 9.29678,2.99194 12.92961,5.250369 0.87803,0.545846 2.6445,1.737604 3.92548,2.648353 2.66356,1.893722 4.16049,2.808341 4.3258,2.643039 0.0629,-0.06292 -1.15552,-1.383437 -2.70764,-2.934488 -5.26597,-5.262362 -10.25646,-7.828506 -17.29537,-8.893396 -2.35304,-0.355983 -8.11101,-0.394468 -11.29823,-0.07552 -8.687927,0.869416 -15.369107,3.993329 -20.143177,9.418325 -0.70903,0.805707 -1.28915,1.51713 -1.28915,1.580938 0,0.06381 0.347,0.343203 0.77111,0.620876 l 0.77111,0.504858 1.27676,-1.525277 c 2.53116,-3.023825 6.31761,-5.460979 10.21495,-6.574868 9.627717,-2.751671 19.411857,-2.102061 26.374377,1.751106 3.08994,1.710026 6.53265,4.503678 9.04252,7.337728 0.68581,0.774389 1.27012,1.407982 1.29848,1.407982 0.0283,0 0.69393,-0.32137 1.47906,-0.714155 z M 99.426943,75.372377 c 0.14169,-0.0567 0.310966,-0.04973 0.376186,0.01549 0.0652,0.06522 -0.0507,0.11161 -0.257606,0.103087 -0.22864,-0.0094 -0.27515,-0.05593 -0.11858,-0.118581 z m 30.748767,2.538434 c -1.59666,-2.501817 -4.00324,-5.097551 -5.99935,-6.470915 -1.47598,-1.015502 -3.92564,-2.164288 -5.73025,-2.687241 -3.05284,-0.88468 -5.6662,-1.155447 -10.0519,-1.041467 -6.63552,0.172452 -10.582887,1.2005 -14.305447,3.725691 -1.14894,0.779384 -4.24244,3.746526 -4.24244,4.069155 0,0.09298 0.37537,-0.03849 0.83416,-0.292162 1.16562,-0.644491 4.47003,-1.761498 6.33817,-2.142525 7.594927,-1.549075 18.270687,-1.079403 24.722187,1.087633 2.03564,0.683766 5.98063,2.551906 7.55655,3.578395 0.59373,0.386727 1.11175,0.705403 1.15115,0.708165 0.0394,0.0028 -0.0834,-0.237865 -0.27283,-0.534729 z"
       id="path314" /></g></svg>
